<svg width="65" height="32" viewBox="0 0 65 32" fill="none" xmlns="http://www.w3.org/2000/svg">
<path d="M39.7004 17.6855C40.9677 18.6324 42.1004 21.0165 42.1004 22.4855C42.1004 22.9431 41.7665 23.3141 41.3546 23.3141H40.9004M36.1004 13.8043C36.9202 13.3301 37.4718 12.4436 37.4718 11.4284C37.4718 10.4132 36.9202 9.52675 36.1004 9.05249M23.6462 23.3141H36.7832C37.1951 23.3141 37.529 22.9431 37.529 22.4855C37.529 19.6089 35.1257 17.2769 30.2147 17.2769C25.3037 17.2769 22.9004 19.6089 22.9004 22.4855C22.9004 22.9431 23.2343 23.3141 23.6462 23.3141ZM32.9575 11.4284C32.9575 12.9432 31.7295 14.1713 30.2147 14.1713C28.6998 14.1713 27.4718 12.9432 27.4718 11.4284C27.4718 9.91357 28.6998 8.68555 30.2147 8.68555C31.7295 8.68555 32.9575 9.91357 32.9575 11.4284Z" stroke="#616161" stroke-width="2" stroke-linecap="round"/>
</svg>
