<svg width="226" height="226" viewBox="0 0 226 226" fill="none" xmlns="http://www.w3.org/2000/svg">
<path d="M187 124.002C187 134.992 184.6 145.432 180.29 154.812C168.61 180.302 142.87 198.002 113 198.002C83.13 198.002 57.39 180.302 45.71 154.812C41.4 145.432 39 134.992 39 124.002C39 83.132 72.13 50.002 113 50.002C153.87 50.002 187 83.132 187 124.002Z" fill="#F0F1F2"/>
<mask id="mask0_3510_2398" style="mask-type:alpha" maskUnits="userSpaceOnUse" x="39" y="27" width="148" height="171">
<path d="M187 67.5C187 78.49 184.6 145.43 180.29 154.81C168.61 180.3 142.87 198 113 198C83.13 198 57.39 180.3 45.71 154.81C41.4 145.43 39 78.49 39 67.5C39 26.63 72.13 27.0001 113 27.0001C153.87 27.0001 187 26.63 187 67.5Z" fill="#F0F1F2"/>
</mask>
<g mask="url(#mask0_3510_2398)">
<g filter="url(#filter0_d_3510_2398)">
<path d="M56.8926 46.623C56.8926 45.726 57.6186 45 58.5156 45H167.27C168.167 45 168.893 45.726 168.893 46.623V196.826C168.893 197.723 168.167 198.449 167.27 198.449H58.5156C57.6186 198.449 56.8926 197.723 56.8926 196.826V46.623Z" fill="#5BA7B1"/>
<path d="M168.893 102.275H56.8926V132.71H168.893V102.275Z" fill="#7FBEC6"/>
<path d="M56.8926 132.71H168.893V196.826C168.893 197.723 168.167 198.449 167.27 198.449H58.5156C57.6186 198.449 56.8926 197.723 56.8926 196.826V132.71Z" fill="white"/>
<path d="M82.9867 102.129H79.0017L76.9727 90.0117H80.9497L81.1287 91.0827L82.9867 102.129Z" fill="white"/>
<path d="M145.741 132.851H142.2L139.795 118.513H143.335L145.741 132.851Z" fill="#6D493C"/>
<path d="M111.486 86.8274H80.4172L75.3672 56.7354H104.19C105.487 56.7354 106.594 57.6724 106.809 58.9514L111.486 86.8274Z" fill="white"/>
<path d="M80.4184 86.8274H76.4384L71.9084 59.8294C71.6364 58.2104 72.8844 56.7344 74.5264 56.7344H75.3684L80.4184 86.8274Z" fill="white"/>
<path d="M151.682 90.0302L140.143 99.4852L140.585 102.126H132.23L147.012 90.0122H125.221V86.8262H151.682V90.0302Z" fill="#6D493C"/>
<path d="M113.705 121.152L99.4273 132.851H94.7363L112.232 118.513H113.26L113.705 121.152Z" fill="#6D493C"/>
<path d="M113.05 96.1417L109.938 98.6927L105.747 102.127H82.9851L80.9531 90.0127H112.021L113.05 96.1417Z" fill="white"/>
<path d="M125.22 90.0132L113.617 99.5222L119.209 132.85H115.669L110.514 102.126L110.505 102.071L110.438 102.126L72.9449 132.85H68.2539L120.529 90.0122H71.6729V86.8262H125.22V90.0132Z" fill="#AF5947"/>
<path d="M156.68 104.784V118.514H127.494V102.128H154.025C155.491 102.128 156.68 103.317 156.68 104.784Z" fill="#D2D5D9"/>
<path d="M127.493 102.128V118.513H116.802L114.053 102.128H127.493Z" fill="#D2D5D9"/>
<path d="M113.26 118.514H90.4414L110.502 102.073L113.26 118.514Z" fill="#D2D5D9"/>
<path d="M105.744 102.13L85.73 118.516H81.753L79.002 102.13H105.744Z" fill="#D2D5D9"/>
<path d="M115.893 144H69.8926C68.7876 144 67.8926 144.895 67.8926 146C67.8926 147.105 68.7876 148 69.8926 148H115.893C116.998 148 117.893 147.105 117.893 146C117.893 144.895 116.997 144 115.893 144Z" fill="#D2D5D9"/>
<path d="M102.893 159H72.8926C70.1316 159 67.8926 161.239 67.8926 164C67.8926 166.761 70.1316 169 72.8926 169H102.893C105.654 169 107.893 166.761 107.893 164C107.893 161.239 105.654 159 102.893 159Z" fill="#00735C"/>
</g>
</g>
<defs>
<filter id="filter0_d_3510_2398" x="46.8926" y="37" width="132" height="173.449" filterUnits="userSpaceOnUse" color-interpolation-filters="sRGB">
<feFlood flood-opacity="0" result="BackgroundImageFix"/>
<feColorMatrix in="SourceAlpha" type="matrix" values="0 0 0 0 0 0 0 0 0 0 0 0 0 0 0 0 0 0 127 0" result="hardAlpha"/>
<feOffset dy="2"/>
<feGaussianBlur stdDeviation="5"/>
<feColorMatrix type="matrix" values="0 0 0 0 0 0 0 0 0 0 0 0 0 0 0 0 0 0 0.3 0"/>
<feBlend mode="normal" in2="BackgroundImageFix" result="effect1_dropShadow_3510_2398"/>
<feBlend mode="normal" in="SourceGraphic" in2="effect1_dropShadow_3510_2398" result="shape"/>
</filter>
</defs>
</svg>
