<svg width="225" height="226" viewBox="0 0 225 226" fill="none" xmlns="http://www.w3.org/2000/svg">
<path d="M225 172.579H0V172.692H225V172.579Z" fill="#EBEBEB"/>
<path d="M202.456 179.822H187.551V179.935H202.456V179.822Z" fill="#EBEBEB"/>
<path d="M149.049 181.044H145.137V181.156H149.049V181.044Z" fill="#EBEBEB"/>
<path d="M187.099 175.644H178.463V175.756H187.099V175.644Z" fill="#EBEBEB"/>
<path d="M43.0443 176.399H23.6074V176.512H43.0443V176.399Z" fill="#EBEBEB"/>
<path d="M49.9006 176.399H47.0508V176.512H49.9006V176.399Z" fill="#EBEBEB"/>
<path d="M101.316 178.3H59.1621V178.412H101.316V178.3Z" fill="#EBEBEB"/>
<path d="M106.657 152.51H19.762C18.3458 152.51 17.1934 151.358 17.1934 149.942V27.7971C17.1934 26.381 18.3458 25.2285 19.762 25.2285H106.657C108.072 25.2285 109.225 26.381 109.225 27.7971V149.942C109.225 151.358 108.072 152.51 106.657 152.51ZM19.762 25.3415C18.4075 25.3415 17.3059 26.4431 17.3059 27.7976V149.942C17.3059 151.296 18.4075 152.398 19.762 152.398H106.657C108.011 152.398 109.112 151.296 109.112 149.942V27.7971C109.112 26.4431 108.011 25.341 106.657 25.341L19.762 25.3415Z" fill="#EBEBEB"/>
<path d="M203.99 152.51H117.095C115.679 152.51 114.527 151.358 114.527 149.942V27.7971C114.527 26.381 115.68 25.2285 117.095 25.2285H203.99C205.406 25.2285 206.558 26.381 206.558 27.7971V149.942C206.559 151.358 205.406 152.51 203.99 152.51ZM117.095 25.3415C115.741 25.3415 114.64 26.4431 114.64 27.7976V149.942C114.64 151.296 115.741 152.398 117.095 152.398H203.99C205.344 152.398 206.446 151.296 206.446 149.942V27.7971C206.446 26.4431 205.344 25.341 203.99 25.341L117.095 25.3415Z" fill="#EBEBEB"/>
<path d="M116.256 172.58H129.256V126.266H116.256V172.58Z" fill="#E6E6E6"/>
<path d="M118.725 172.58H116.256V168.287H121.314L118.725 172.58Z" fill="#F0F0F0"/>
<path d="M190.43 172.58H203.43V126.266H190.43V172.58Z" fill="#E6E6E6"/>
<path d="M116.256 171.454H192.584V126.266H116.256V171.454Z" fill="#F0F0F0"/>
<path d="M167.42 128.95V168.947H190.046V128.95H167.42Z" fill="#E6E6E6"/>
<path d="M176.494 131.243H180.97C182.915 131.243 184.774 130.31 186.111 128.662H171.354C172.691 130.31 174.55 131.243 176.494 131.243Z" fill="#F0F0F0"/>
<path d="M143.107 128.95V168.947H165.733V128.95H143.107Z" fill="#E6E6E6"/>
<path d="M151.953 131.243H156.429C158.374 131.243 160.233 130.31 161.57 128.662H146.812C148.15 130.31 150.009 131.243 151.953 131.243Z" fill="#F0F0F0"/>
<path d="M118.793 128.95V168.947H141.419V128.95H118.793Z" fill="#E6E6E6"/>
<path d="M127.639 131.243H132.115C134.059 131.243 135.918 130.31 137.255 128.662H122.498C123.836 130.31 125.695 131.243 127.639 131.243Z" fill="#F0F0F0"/>
<path d="M190.116 172.58H192.585V168.287H187.527L190.116 172.58Z" fill="#F0F0F0"/>
<path d="M34.4936 114.225L121.715 114.225L121.715 39.9593L34.4936 39.9593L34.4936 114.225Z" fill="#E6E6E6"/>
<path d="M32.5319 114.225L120.863 114.225L120.863 39.9593L32.5319 39.9593L32.5319 114.225Z" fill="#F5F5F5"/>
<path d="M117.34 110.661L117.34 43.5234L36.0555 43.5234L36.0555 110.661L117.34 110.661Z" fill="#FAFAFA"/>
<path d="M107.366 110.661L75.3744 43.5234H64.5078L96.4997 110.661H107.366Z" fill="white"/>
<path d="M93.4193 110.661L61.4275 43.5234H53.9453L85.9367 110.661H93.4193Z" fill="white"/>
<path d="M66.2363 110.661L66.2363 43.5234H62.0329L62.0329 110.661H66.2363Z" fill="#E6E6E6"/>
<path d="M94.1777 110.661L94.1777 43.5234H89.9743L89.9743 110.661H94.1777Z" fill="#E6E6E6"/>
<path d="M65.4785 112.922L65.4785 40.873H60.1654L60.1654 112.922H65.4785Z" fill="#F5F5F5"/>
<path d="M93.4199 112.922L93.4199 40.873H88.1068L88.1068 112.922H93.4199Z" fill="#F5F5F5"/>
<path d="M36.4297 110.66L36.4297 43.5225H36.0557L36.0557 110.66H36.4297Z" fill="#E6E6E6"/>
<path d="M31.0522 35.376H125.547C125.797 35.376 126.001 35.5803 126.001 35.8305C126.001 36.0802 125.797 36.285 125.547 36.285H31.0522C30.8024 36.285 30.5977 36.0807 30.5977 35.8305C30.5977 35.5803 30.8024 35.376 31.0522 35.376Z" fill="#E6E6E6"/>
<path d="M121.717 38.3744C122.054 38.3744 122.33 38.0981 122.33 37.761V36.4434C122.33 36.1059 122.054 35.8301 121.717 35.8301C121.379 35.8301 121.104 36.1064 121.104 36.4434V37.761C121.104 38.0985 121.379 38.3744 121.717 38.3744Z" fill="#E6E6E6"/>
<path d="M37.9044 38.3744C38.2419 38.3744 38.5177 38.0981 38.5177 37.761V36.4434C38.5177 36.1059 38.2419 35.8301 37.9044 35.8301C37.5669 35.8301 37.291 36.1064 37.291 36.4434V37.761C37.2906 38.0985 37.5669 38.3744 37.9044 38.3744Z" fill="#E6E6E6"/>
<path opacity="0.6" d="M31.1978 72.6895L119.465 72.6895V35.83L31.1978 35.83V72.6895Z" fill="#E0E0E0"/>
<path d="M32.4048 172.579H34.6719L34.6719 135.39H32.4048L32.4048 172.579Z" fill="#E6E6E6"/>
<path d="M85.6086 128.152H73.3281V135.39H85.6086V128.152Z" fill="#E6E6E6"/>
<path d="M24.5522 135.39H73.3281V128.152H24.5522V135.39Z" fill="#F5F5F5"/>
<path d="M85.6086 139.89H73.3281V147.127H85.6086V139.89Z" fill="#E6E6E6"/>
<path d="M24.5522 147.127H73.3281V139.89H24.5522V147.127Z" fill="#F5F5F5"/>
<path d="M85.6086 151.627H73.3281V158.864H85.6086V151.627Z" fill="#E6E6E6"/>
<path d="M24.5522 158.864H73.3281V151.627H24.5522V158.864Z" fill="#F5F5F5"/>
<path d="M81.1821 172.579H83.4492V135.39H81.1821V172.579Z" fill="#E6E6E6"/>
<path d="M71.061 172.579H73.3281V135.39H71.061V172.579Z" fill="#F5F5F5"/>
<path d="M24.5532 172.579H26.8203L26.8203 135.39H24.5532L24.5532 172.579Z" fill="#F5F5F5"/>
<path d="M112.5 192.903C160.687 192.903 199.75 190.621 199.75 187.807C199.75 184.993 160.687 182.712 112.5 182.712C64.3132 182.712 25.25 184.993 25.25 187.807C25.25 190.621 64.3132 192.903 112.5 192.903Z" fill="#F5F5F5"/>
<path d="M178.203 167.377H105.119C102.04 167.377 99.7131 164.858 99.948 161.779L108.902 44.4349C109.137 41.356 111.848 38.8369 114.927 38.8369H188.01C191.089 38.8369 193.416 41.356 193.181 44.4349L184.228 161.779C183.993 164.858 181.281 167.377 178.203 167.377Z" fill="#5BA7B1"/>
<path opacity="0.5" d="M178.203 167.377H105.119C102.04 167.377 99.7131 164.858 99.948 161.779L108.902 44.4349C109.137 41.356 111.848 38.8369 114.927 38.8369H188.01C191.089 38.8369 193.416 41.356 193.181 44.4349L184.228 161.779C183.993 164.858 181.281 167.377 178.203 167.377Z" fill="white"/>
<path d="M177.115 167.377H104.031C100.952 167.377 98.6252 164.858 98.8601 161.779L107.814 44.4349C108.049 41.356 110.76 38.8369 113.839 38.8369H186.922C190.001 38.8369 192.328 41.356 192.093 44.4349L183.139 161.779C182.905 164.858 180.194 167.377 177.115 167.377Z" fill="#5BA7B1"/>
<path opacity="0.7" d="M177.115 167.377H104.031C100.952 167.377 98.6252 164.858 98.8601 161.779L107.814 44.4349C108.049 41.356 110.76 38.8369 113.839 38.8369H186.922C190.001 38.8369 192.328 41.356 192.093 44.4349L183.139 161.779C182.905 164.858 180.194 167.377 177.115 167.377Z" fill="white"/>
<path d="M104.173 165.511C102.115 165.511 100.569 163.837 100.726 161.779L109.561 45.9897C109.718 43.9318 111.52 42.2578 113.577 42.2578H186.661C188.719 42.2578 190.265 43.9318 190.108 45.9897L181.273 161.779C181.116 163.837 179.314 165.511 177.256 165.511H104.173Z" fill="#5BA7B1"/>
<path opacity="0.2" d="M176.743 61.7359H124.442C123.226 61.7359 122.306 60.7405 122.399 59.5237C122.492 58.3069 123.563 57.3115 124.78 57.3115H177.081C178.298 57.3115 179.217 58.3069 179.124 59.5237C179.032 60.7405 177.96 61.7359 176.743 61.7359Z" fill="black"/>
<path opacity="0.3" d="M154.432 41.1174H145.983C145.684 41.1174 145.457 40.8726 145.48 40.5733C145.503 40.2741 145.766 40.0293 146.066 40.0293H154.515C154.814 40.0293 155.04 40.2741 155.017 40.5733C154.994 40.8726 154.731 41.1174 154.432 41.1174Z" fill="#5BA7B1"/>
<path d="M124.215 59.5237C124.473 56.1397 121.938 53.4023 118.561 53.4023H171.657C175.035 53.4023 177.57 56.1401 177.312 59.5237H124.215Z" fill="#F0F0F0"/>
<path d="M118.559 53.4023C115.182 53.4023 112.229 56.1401 111.971 59.5237L106.53 130.834C106.272 134.218 103.319 136.956 99.9414 136.956H153.038C156.416 136.956 159.369 134.218 159.627 130.834L165.068 59.5237C165.326 56.1397 168.278 53.4023 171.656 53.4023H118.559Z" fill="white"/>
<path d="M147.384 130.834C147.126 134.218 149.661 136.955 153.038 136.955H99.9419C96.5642 136.955 94.0293 134.218 94.2876 130.834H147.384Z" fill="#F0F0F0"/>
<path d="M116.304 129.427C116.503 126.821 115.685 124.713 113.084 124.713H153.972C156.573 124.713 158.53 127.093 157.193 129.427H116.304Z" fill="#E0E0E0"/>
<path d="M147.384 130.834C147.642 127.45 150.595 124.713 153.972 124.713H100.876C97.4979 124.713 94.545 127.451 94.2871 130.834H147.384Z" fill="#F0F0F0"/>
<path d="M172.49 148.514H111.536C110.652 148.514 109.984 147.791 110.052 146.907C110.119 146.023 110.897 145.3 111.781 145.3H172.736C173.619 145.3 174.287 146.023 174.22 146.907C174.152 147.791 173.374 148.514 172.49 148.514Z" fill="white"/>
<path d="M141.708 156.237H110.946C110.062 156.237 109.394 155.514 109.462 154.63C109.529 153.747 110.307 153.023 111.191 153.023H141.954C142.837 153.023 143.505 153.747 143.438 154.63C143.37 155.514 142.592 156.237 141.708 156.237Z" fill="white"/>
<path d="M163.006 156.237H150.545C149.662 156.237 148.994 155.514 149.061 154.63C149.129 153.747 149.907 153.023 150.791 153.023H163.251C164.135 153.023 164.803 153.747 164.735 154.63C164.668 155.514 163.89 156.237 163.006 156.237Z" fill="white"/>
<path d="M175.469 125.68L172.289 126.178C172.162 125.778 172.041 125.501 171.926 125.346C171.811 125.191 171.613 125.035 171.333 124.877L171.146 127.321C172.823 127.777 173.93 128.259 174.465 128.766C175.173 129.448 175.487 130.313 175.407 131.361C175.361 131.975 175.181 132.538 174.869 133.051C174.556 133.564 174.175 133.992 173.723 134.336C173.272 134.679 172.801 134.929 172.311 135.084C171.82 135.238 171.228 135.33 170.533 135.358L170.411 136.954H169.178L169.3 135.358C168.478 135.285 167.817 135.151 167.316 134.957C166.816 134.763 166.392 134.494 166.043 134.151C165.695 133.807 165.435 133.437 165.262 133.04C165.09 132.643 164.975 132.163 164.916 131.6L168.359 131.203C168.417 131.761 168.523 132.163 168.676 132.411C168.829 132.659 169.095 132.879 169.475 133.07L169.702 130.085C168.589 129.77 167.803 129.496 167.345 129.265C166.887 129.034 166.503 128.664 166.193 128.154C165.883 127.644 165.755 127.023 165.811 126.29C165.888 125.287 166.302 124.449 167.054 123.775C167.807 123.102 168.878 122.729 170.269 122.655L170.333 121.819H171.566L171.502 122.655C172.757 122.734 173.699 123.033 174.326 123.551C174.954 124.069 175.335 124.779 175.469 125.68ZM170.103 124.835C169.733 124.954 169.471 125.101 169.317 125.277C169.163 125.452 169.077 125.659 169.059 125.896C169.04 126.145 169.096 126.361 169.223 126.545C169.353 126.729 169.591 126.883 169.937 127.007L170.103 124.835ZM170.701 133.154C171.188 133.047 171.552 132.87 171.792 132.625C172.034 132.379 172.166 132.104 172.189 131.799C172.209 131.533 172.134 131.289 171.962 131.065C171.792 130.842 171.44 130.635 170.907 130.444L170.701 133.154Z" fill="white"/>
<path d="M115.527 73.2529H117.041L116.668 78.1395H115.154L115.527 73.2529Z" fill="#5BA7B1"/>
<path d="M118.133 73.2529H119.543L121.177 75.9561L121.383 73.2529H122.806L122.433 78.1395H121.01L119.384 75.4566L119.18 78.1395H117.76L118.133 73.2529Z" fill="#5BA7B1"/>
<path d="M123.33 73.2529H124.908L125.74 76.7692L127.093 73.2529H128.626L126.439 78.1395H124.802L123.33 73.2529Z" fill="#5BA7B1"/>
<path d="M128.51 75.6994C128.571 74.9015 128.84 74.2805 129.318 73.8364C129.797 73.3918 130.433 73.1699 131.226 73.1699C132.039 73.1699 132.649 73.3882 133.056 73.8247C133.463 74.2612 133.636 74.8727 133.575 75.6593C133.532 76.2304 133.4 76.6988 133.18 77.0642C132.96 77.4296 132.66 77.714 132.282 77.9174C131.903 78.1208 131.442 78.2225 130.9 78.2225C130.349 78.2225 129.9 78.1348 129.552 77.9593C129.204 77.7838 128.933 77.5061 128.738 77.1259C128.542 76.7456 128.467 76.2704 128.51 75.6994ZM130.019 75.7061C129.981 76.1993 130.046 76.5539 130.213 76.7695C130.38 76.985 130.621 77.0926 130.937 77.0926C131.261 77.0926 131.52 76.9873 131.714 76.7758C131.908 76.5647 132.026 76.1858 132.068 75.6391C132.103 75.1792 132.036 74.843 131.866 74.6306C131.697 74.4187 131.453 74.3125 131.136 74.3125C130.831 74.3125 130.578 74.4205 130.378 74.636C130.177 74.8516 130.057 75.2084 130.019 75.7061Z" fill="#5BA7B1"/>
<path d="M134.633 73.2529H136.146L135.773 78.1395H134.26L134.633 73.2529Z" fill="#5BA7B1"/>
<path d="M140.261 76.139L141.554 76.5391C141.437 76.9103 141.273 77.2204 141.063 77.4692C140.853 77.7181 140.601 77.9057 140.308 78.0326C140.015 78.1591 139.65 78.2225 139.212 78.2225C138.681 78.2225 138.253 78.1451 137.928 77.9912C137.603 77.8369 137.333 77.5655 137.119 77.1767C136.904 76.7884 136.82 76.2907 136.866 75.6845C136.927 74.8763 137.19 74.2549 137.653 73.8211C138.116 73.3868 138.741 73.1699 139.527 73.1699C140.143 73.1699 140.617 73.2941 140.95 73.5434C141.283 73.7923 141.516 74.1743 141.648 74.69L140.292 74.9866C140.257 74.8376 140.216 74.7287 140.17 74.6599C140.094 74.5442 139.998 74.4556 139.88 74.3935C139.763 74.3314 139.628 74.3003 139.477 74.3003C139.135 74.3003 138.862 74.438 138.659 74.713C138.506 74.9173 138.413 75.2377 138.379 75.6751C138.338 76.2164 138.392 76.5877 138.541 76.7888C138.69 76.9895 138.914 77.0899 139.212 77.0899C139.5 77.0899 139.725 77.0089 139.885 76.8464C140.046 76.6831 140.171 76.4477 140.261 76.139Z" fill="#5BA7B1"/>
<path d="M142.535 73.2529H146.582L146.502 74.296H143.969L143.909 75.0727H146.259L146.183 76.0695H143.833L143.76 77.0329H146.366L146.282 78.1395H142.162L142.535 73.2529Z" fill="#5BA7B1"/>
<path d="M158.563 84.4496H114.672L114.765 83.2314H158.656L158.563 84.4496Z" fill="#5BA7B1"/>
<path d="M158.564 84.4492H114.673L114.389 88.1761H158.28L158.564 84.4492Z" fill="#F0F0F0"/>
<path d="M157.994 91.9033H114.103L113.818 95.6302H157.71L157.994 91.9033Z" fill="#F0F0F0"/>
<path d="M157.426 99.3574H113.534L113.25 103.084H157.141L157.426 99.3574Z" fill="#F0F0F0"/>
<path d="M156.857 106.812H112.966L112.682 110.539H156.573L156.857 106.812Z" fill="#F0F0F0"/>
<path d="M156.196 115.484H112.305L112.397 114.266H156.289L156.196 115.484Z" fill="#5BA7B1"/>
<path d="M151.175 61.7354H160.297L159.882 67.1777H150.76L151.175 61.7354Z" fill="#F0F0F0"/>
<path d="M61.7306 96.3532L63.3623 97.0084C63.9563 97.2469 64.4774 97.6366 64.8739 98.1388L65.6213 99.0851C66.1163 99.7124 66.0934 100.603 65.5664 101.204L64.7713 102.111C64.162 102.805 63.1027 102.868 62.4164 102.25L61.6559 101.565C61.6559 101.565 59.3146 99.9208 58.627 97.7495L59.0788 97.2977C59.8141 96.562 60.7892 96.2146 61.7306 96.3532Z" fill="#FFB573"/>
<path d="M66.1978 80.5635L65.6668 80.9136L65.076 81.3195C64.6831 81.5994 64.2889 81.8847 63.9037 82.1812C63.1369 82.7775 62.3877 83.3944 61.6933 84.0496C60.2938 85.3492 59.0766 86.7753 58.2126 88.2904C58.1019 88.479 58.0002 88.6702 57.9066 88.8624L57.8328 89.0064C57.8476 88.9717 57.8724 88.8669 57.8809 88.8232C57.9003 88.7004 57.8976 88.6333 57.8899 88.5951C57.8467 88.465 57.8427 88.803 57.9444 89.1369C58.1451 89.8497 58.5609 90.7564 59.0217 91.6299C59.9482 93.4024 61.1115 95.2245 62.2063 97.0218L62.2351 97.0686C62.6892 97.8142 62.4529 98.7871 61.7073 99.2416C61.1317 99.5922 60.4185 99.5292 59.9154 99.1404C58.9897 98.4222 58.1626 97.681 57.3418 96.88C56.5246 96.0835 55.7448 95.2393 54.9969 94.3195C54.258 93.3822 53.5362 92.4196 52.9278 91.111C52.7761 90.7794 52.6308 90.4207 52.5066 90.004C52.3833 89.5887 52.2829 89.1027 52.2735 88.4893C52.2726 88.1797 52.2946 87.84 52.3837 87.4543C52.4193 87.277 52.4962 87.0462 52.5547 86.8828L52.6416 86.652C52.755 86.3415 52.8778 86.0377 53.011 85.7403C54.0676 83.3445 55.6039 81.3217 57.3009 79.578C58.155 78.7059 59.0568 77.9026 60.004 77.1606C60.4788 76.7907 60.9603 76.4316 61.462 76.0932C61.7136 75.924 61.9638 75.7534 62.2266 75.5923L62.6266 75.3493L63.0829 75.0856C64.5873 74.2162 66.5115 74.7315 67.3809 76.2358C68.217 77.6835 67.7719 79.5199 66.3967 80.4307L66.1978 80.5635Z" fill="#FFB573"/>
<path d="M66.2482 73.4239C63.6184 73.4392 60.7397 74.5624 57.0488 79.1376C57.0488 81.8691 62.8147 85.5001 62.8147 85.5001C62.8147 85.5001 72.266 73.3893 66.2482 73.4239Z" fill="#263238"/>
<path d="M46.725 181.598C46.6791 181.598 46.6332 181.59 46.586 181.574C46.0401 181.382 45.5271 179.994 45.4943 179.224C45.492 179.174 45.5195 179.127 45.564 179.105C45.609 179.083 45.6617 179.089 45.7008 179.12C45.7584 179.167 47.1156 180.278 47.1795 181.026C47.193 181.185 47.1512 181.322 47.0558 181.431C46.9595 181.541 46.8456 181.598 46.725 181.598ZM45.7818 179.524C45.9051 180.256 46.3223 181.213 46.6701 181.335C46.7201 181.353 46.7835 181.358 46.8654 181.264C46.9149 181.208 46.9352 181.137 46.928 181.047C46.8897 180.608 46.2224 179.92 45.7818 179.524Z" fill="#263238"/>
<path d="M47.5691 179.947C46.9382 179.947 46.0279 179.642 45.5504 179.324C45.509 179.296 45.4874 179.247 45.496 179.198C45.5041 179.149 45.5405 179.109 45.5882 179.096C45.6602 179.077 47.3572 178.635 47.9989 179.024C48.1361 179.107 48.2216 179.221 48.2536 179.363C48.2981 179.56 48.241 179.724 48.092 179.826C47.9705 179.911 47.786 179.947 47.5691 179.947ZM45.9626 179.268C46.6264 179.6 47.6447 179.827 47.9485 179.618C47.993 179.587 48.0344 179.54 48.007 179.419C47.9903 179.346 47.9449 179.287 47.8679 179.24C47.4908 179.012 46.5418 179.146 45.9626 179.268Z" fill="#263238"/>
<path d="M40.8342 178.921C41.5947 177.994 42.8749 176.756 44.1916 174.155C44.1916 174.155 48.3654 175.182 47.5455 176.386C46.0587 178.571 45.3337 183.054 47.2498 185.459C48.3433 186.832 46.6135 187.059 45.4705 186.472C43.6521 185.538 43.729 185.19 42.7849 183.645C41.9772 182.324 41.6581 181.807 40.5471 181.241C39.6192 180.77 40.0705 179.853 40.8342 178.921Z" fill="#5BA7B1"/>
<path d="M76.2483 100.551C76.2483 100.551 70.1909 130.071 65.762 142.678C61.1103 155.919 48.2642 176.35 47.7705 177.227C45.9444 176.74 44.3159 176.101 43.2305 175.04C43.2305 175.04 49.2605 152.878 55.1406 138.501C57.3717 108.488 62.2911 100.551 62.2911 100.551H76.2483Z" fill="#263238"/>
<path opacity="0.2" d="M67.008 116.343C66.7335 122.054 66.5445 129.906 66.8145 139.464C68.664 133.506 70.6755 125.429 72.3675 118.179C71.2384 116.672 69.483 115.947 67.008 116.343Z" fill="black"/>
<path d="M67.373 64.3506C68.0089 66.9174 68.6294 71.1046 67.6178 73.3335C67.6178 73.3335 71.4064 73.5009 76.2488 77.3677C78.529 74.0188 75.8902 73.3618 75.8902 73.3618C73.8773 72.8893 73.9763 70.2087 73.979 68.2993L67.373 64.3506Z" fill="#FFB573"/>
<path d="M66.4183 74.4995C64.5283 74.2907 65.8355 70.6997 66.8179 71.0493C69.3001 71.9336 74.8706 70.9494 76.5932 71.8994C78.3158 72.8493 77.8807 74.7992 77.8807 74.7992C77.8807 74.7992 68.455 74.7245 66.4183 74.4995Z" fill="#5BA7B1"/>
<path opacity="0.7" d="M66.4183 74.4995C64.5283 74.2907 65.8355 70.6997 66.8179 71.0493C69.3001 71.9336 74.8706 70.9494 76.5932 71.8994C78.3158 72.8493 77.8807 74.7992 77.8807 74.7992C77.8807 74.7992 68.455 74.7245 66.4183 74.4995Z" fill="white"/>
<path d="M77.4464 59.8193C77.5071 60.1626 77.7384 60.4092 77.963 60.3692C78.1875 60.3296 78.3203 60.0186 78.2595 59.6753C78.1988 59.3319 77.9675 59.0853 77.7429 59.1254C77.5179 59.165 77.3856 59.4759 77.4464 59.8193Z" fill="#263238"/>
<path d="M77.6465 59.1622L78.4295 58.7783C78.4295 58.7783 78.1203 59.4979 77.6465 59.1622Z" fill="#263238"/>
<path d="M77.9039 57.074C77.9282 57.0295 77.9368 56.9755 77.9224 56.9228C77.8931 56.8135 77.7811 56.7482 77.6717 56.7775C76.5764 57.0691 76.2709 57.9641 76.2583 58.0028C76.2232 58.1104 76.2812 58.226 76.3888 58.2616C76.4959 58.2967 76.6115 58.2386 76.6475 58.1315C76.6588 58.0964 76.9063 57.4057 77.777 57.1739C77.8333 57.1586 77.8778 57.1213 77.9039 57.074Z" fill="#263238"/>
<path d="M77.8516 60.6543C77.8516 60.6543 78.5963 62.0871 79.3199 62.7401C78.9064 63.2153 78.1072 63.1014 78.1072 63.1014L77.8516 60.6543Z" fill="#ED893E"/>
<path d="M65.7001 59.6429C66.7014 63.8171 67.038 65.6055 69.5116 67.401C73.2322 70.1019 78.0391 67.9702 78.2803 63.5836C78.4977 59.6353 76.8232 53.4721 72.4758 52.5104C68.1922 51.5632 64.6989 55.4687 65.7001 59.6429Z" fill="#FFB573"/>
<path d="M73.791 60.4118C76.2489 57.1628 77.8527 54.5375 76.6395 51.662C75.6261 49.2585 72.8239 49.9619 72.4324 51.162C64.9782 50.5253 62.3024 53.2253 63.841 57.6929C64.8211 60.5391 61.0141 59.0631 61.9411 62.6784C62.6516 65.4504 60.1447 66.5066 61.4173 68.1005C63.2537 70.4004 67.0409 67.4007 71.3659 69.1256C74.9042 70.5363 80.2215 68.4002 73.791 60.4118Z" fill="#263238"/>
<path d="M73.3921 61.0679C73.8767 61.8325 74.608 62.2582 75.2587 62.3531C76.2374 62.4958 76.5736 61.3996 76.1735 60.3821C75.8135 59.4664 74.8703 58.2883 73.9496 58.6154C73.0429 58.9372 72.8381 60.1936 73.3921 61.0679Z" fill="#FFB573"/>
<path d="M74.8445 184.35C74.219 184.35 73.1948 183.854 72.7155 183.422C72.6786 183.389 72.6646 183.336 72.6799 183.289C72.6948 183.242 72.7367 183.208 72.7862 183.202C72.8595 183.194 74.6037 183.004 75.1815 183.483C75.3048 183.585 75.3732 183.71 75.384 183.855C75.3993 184.056 75.3188 184.21 75.1568 184.29C75.0722 184.331 74.966 184.35 74.8445 184.35ZM73.1313 183.427C73.7402 183.853 74.7162 184.225 75.0452 184.063C75.0933 184.039 75.1414 183.998 75.132 183.875C75.1261 183.799 75.0897 183.735 75.0204 183.678C74.6806 183.397 73.7217 183.391 73.1313 183.427Z" fill="#263238"/>
<path d="M72.8002 183.455C72.7602 183.455 72.7219 183.436 72.6981 183.402C72.6684 183.362 72.6661 183.308 72.6904 183.265C72.7273 183.201 73.6008 181.68 74.3284 181.495C74.4837 181.455 74.6241 181.474 74.7487 181.551C74.9202 181.656 74.9976 181.813 74.9661 181.991C74.8666 182.56 73.581 183.293 72.8263 183.452C72.8173 183.454 72.8092 183.455 72.8002 183.455ZM74.4801 181.728C74.4517 181.728 74.4225 181.732 74.391 181.74C73.9644 181.849 73.3947 182.62 73.0756 183.119C73.7781 182.877 74.6533 182.31 74.7172 181.947C74.7262 181.894 74.7217 181.831 74.616 181.766C74.5746 181.74 74.5296 181.728 74.4801 181.728Z" fill="#263238"/>
<path d="M78.1877 185.931C74.5432 185.649 72.0875 183.146 72.3449 180.494C72.4867 179.032 67.8134 178.901 67.8134 178.901C68.5528 183.435 67.6249 184.082 67.3202 185.253C67.0142 186.429 67.0894 187.718 68.0564 187.743C69.2143 187.772 69.7534 187.55 71.192 187.606C72.8741 187.672 74.6935 187.738 77.6828 187.743C78.8776 187.745 79.8086 186.056 78.1877 185.931Z" fill="#5BA7B1"/>
<path d="M82.549 100.551C82.549 100.551 82.2313 122.908 80.4664 137.601C78.7011 152.294 72.6342 181.111 72.6342 181.111C70.881 181.452 69.238 181.507 67.7877 181.067C67.7877 181.067 65.8707 158.554 69.0913 136.801C66.7252 114.001 65.2461 100.551 65.2461 100.551H82.549Z" fill="#263238"/>
<path d="M83.3767 79.8673C83.3011 81.5949 86.0285 85.5891 82.6625 87.9039C83.2916 89.3097 83.8231 98.8447 82.5491 100.55C80.6911 101.915 70.6331 101.65 62.2924 100.55C61.94 97.1023 63.8377 89.9608 61.513 78.8256C60.9739 76.2439 62.7901 73.7644 65.414 73.4998C66.1151 73.4292 66.8581 73.3702 67.6186 73.3338C70.5751 73.1911 72.997 73.0971 75.5962 73.3342C76.4575 73.413 77.348 73.5219 78.1981 73.6411C81.2662 74.0718 83.5121 76.7718 83.3767 79.8673Z" fill="#5BA7B1"/>
<g opacity="0.3">
<path d="M61.7237 78.2247C61.6607 78.2584 61.5981 78.2931 61.5347 78.3259L61.5333 78.3268C61.5333 78.3268 61.5324 78.3277 61.5315 78.3277C61.4753 78.3579 61.4541 78.4285 61.4847 78.4848C61.5153 78.5415 61.5855 78.5622 61.6418 78.5316C61.7106 78.4947 61.7777 78.4551 61.8456 78.4168C62.7384 78.7467 63.7073 79.4919 64.2603 79.5684C63.3684 78.78 62.7263 78.2152 62.022 78.3178C62.2344 78.1945 62.4423 78.0645 62.648 77.9317C63.4688 78.2368 64.3575 78.9195 64.8656 78.9901C64.0385 78.2584 63.444 77.7369 62.7902 77.8395C62.945 77.7373 63.0984 77.6334 63.2496 77.5263C63.3356 77.466 63.4202 77.4034 63.5052 77.3413C64.245 77.6626 65.0298 78.343 65.4947 78.4348C64.7517 77.6968 64.2248 77.1766 63.5939 77.2774C63.791 77.1316 63.9845 76.9809 64.1757 76.8279C64.8552 77.1249 65.5752 77.7477 66.0018 77.8323C65.3183 77.1537 64.8336 76.6744 64.2536 76.7649C64.4174 76.6326 64.5803 76.4985 64.7405 76.3617C64.7792 76.3284 64.8174 76.2946 64.8561 76.2609C65.4555 76.575 66.05 77.1969 66.4406 77.3098C65.8745 76.6294 65.4798 76.1587 64.884 76.2366C65.0379 76.1029 65.1905 75.9679 65.3408 75.8307C65.892 76.1209 66.4383 76.6915 66.7974 76.7955C66.2772 76.1704 65.9145 75.7375 65.3682 75.8055C65.528 75.6597 65.6855 75.5116 65.8412 75.3609C66.3227 75.657 66.7826 76.1979 67.1016 76.3099C66.6687 75.7186 66.3645 75.3064 65.8745 75.328C65.9595 75.2452 66.0441 75.1629 66.1278 75.0787C66.176 75.0301 66.2237 74.9802 66.2718 74.9311C66.7155 75.2038 67.1394 75.7024 67.4337 75.8055C67.0341 75.2601 66.7538 74.8798 66.3015 74.901C66.4329 74.766 66.5621 74.6287 66.6885 74.4892C67.0958 74.707 67.4769 75.126 67.7492 75.2056C67.3905 74.7444 67.1399 74.4249 66.707 74.469C66.7304 74.4433 66.7547 74.4186 66.7776 74.3925C66.8694 74.289 66.9603 74.1846 67.049 74.0784C67.4198 74.2809 67.7663 74.6598 68.0142 74.7322C67.6889 74.3133 67.4598 74.0212 67.0719 74.0514C67.1772 73.924 67.278 73.7926 67.3712 73.654C67.3824 73.6374 67.3784 73.6144 67.3617 73.6027C67.3451 73.591 67.3217 73.5951 67.31 73.6122L67.3095 73.6131C67.2218 73.7386 67.1259 73.8588 67.0256 73.9762C67.0629 73.7755 66.9882 73.587 66.8622 73.3809C66.8109 73.384 66.7592 73.3867 66.7079 73.3903C66.7902 73.5964 66.8951 73.8282 66.9536 74.0577C66.873 74.1495 66.7911 74.2399 66.7083 74.3295C66.689 74.3506 66.6683 74.3709 66.6485 74.3916C66.7344 74.0671 66.5652 73.7836 66.3024 73.4205C66.2745 73.4227 66.2475 73.4254 66.2196 73.4277C66.2894 73.7053 66.5 74.0869 66.5886 74.4546C66.4703 74.5788 66.3501 74.7012 66.2277 74.8218C66.3416 74.4082 66.0567 74.0415 65.6526 73.5249C65.672 73.8345 66.0329 74.3731 66.1764 74.8722C66.1337 74.914 66.0918 74.9563 66.0486 74.9977C65.9672 75.076 65.8844 75.153 65.802 75.2299C65.9159 74.7867 65.609 74.3911 65.1752 73.8358C65.1963 74.1693 65.5829 74.7493 65.7408 75.288C65.5982 75.4203 65.4537 75.5503 65.3075 75.679C65.402 75.2308 65.1036 74.7939 64.6919 74.1945C64.6941 74.5504 65.0577 75.1831 65.2044 75.7686C65.087 75.8712 64.9682 75.9724 64.8485 76.0723C64.9538 75.5845 64.6293 75.1098 64.1816 74.4573C64.1843 74.8429 64.578 75.5301 64.7378 76.165C64.7063 76.1911 64.6752 76.2177 64.6433 76.2438C64.4795 76.3779 64.313 76.5088 64.146 76.638C64.2779 76.1407 63.9678 75.5778 63.5421 74.811C63.5088 75.2268 63.8796 76.0368 63.9993 76.7505C63.8112 76.8931 63.6209 77.0326 63.4278 77.1681C63.6447 76.6038 63.2951 75.9693 62.8046 75.0859C62.7677 75.5485 63.1911 76.4611 63.3099 77.2495C63.2537 77.2882 63.1979 77.3283 63.1412 77.3665C62.9634 77.4862 62.7834 77.6014 62.6021 77.7148C62.8518 77.1433 62.5503 76.467 62.1089 75.5476C62.0882 75.58 62.0652 75.6111 62.0454 75.6439C62.0796 76.1853 62.3919 77.0502 62.4621 77.8017C62.261 77.9241 62.0576 78.0424 61.8515 78.1554C62.0855 77.6797 61.9532 77.1379 61.6643 76.4616C61.5977 76.6524 61.5468 76.8486 61.5068 77.0488C61.5986 77.4376 61.6904 77.8444 61.7237 78.2247Z" fill="#263238"/>
<path d="M73.2209 75.1049C72.5414 74.6707 71.874 73.8746 71.4299 73.7099C72.0464 74.5563 72.4842 75.1535 73.1232 75.1539C72.9054 75.2669 72.6908 75.3848 72.4775 75.5054C71.8533 75.1045 71.2413 74.3755 70.8336 74.2243C71.4006 75.0023 71.8038 75.5527 72.3906 75.5549C72.2079 75.6598 72.0257 75.7664 71.8461 75.8757C71.8025 75.9023 71.7593 75.9298 71.7161 75.9568C71.1738 75.5518 70.6856 74.8435 70.3179 74.6698C70.7693 75.4312 71.0843 75.9586 71.6846 75.9761C71.5113 76.0832 71.3394 76.1926 71.1693 76.3046C70.6707 75.9311 70.2221 75.2808 69.8837 75.1211C70.2981 75.8208 70.5879 76.3055 71.1378 76.3249C70.9569 76.4437 70.7778 76.5652 70.6005 76.6889C70.1717 76.3204 69.8036 75.7133 69.5061 75.5522C69.84 76.2047 70.0749 76.6601 70.5623 76.7159C70.4655 76.7839 70.3683 76.8518 70.2729 76.9216C70.2176 76.9621 70.1627 77.0039 70.1073 77.0444C69.7122 76.7046 69.3729 76.1453 69.0989 75.9968C69.4067 76.5984 69.6236 77.0187 70.0736 77.0696C69.9224 77.1821 69.773 77.2964 69.6263 77.4147C69.2586 77.1353 68.9486 76.661 68.6925 76.5395C68.9738 77.0516 69.1704 77.4067 69.6047 77.4319C69.5777 77.4535 69.5498 77.4741 69.5228 77.4962C69.4157 77.5839 69.3095 77.6726 69.2051 77.7635C68.8712 77.5048 68.589 77.0759 68.3555 76.9652C68.6106 77.4301 68.7902 77.7549 69.1781 77.7869C69.0539 77.8962 68.9333 78.0097 68.8199 78.1316C68.8059 78.1465 68.8068 78.1698 68.8212 78.1838C68.8361 78.1982 68.8595 78.1977 68.8739 78.1829L68.8748 78.1825C68.9814 78.0722 69.0953 77.9687 69.2127 77.8688C69.1034 78.1744 69.2618 78.4844 69.4805 78.9088C69.5178 78.6617 69.3338 78.2104 69.2964 77.8C69.3905 77.7221 69.4859 77.6461 69.5817 77.5705C69.6042 77.5525 69.6276 77.5363 69.6506 77.5187C69.4962 77.8657 69.6731 78.2122 69.9215 78.6946C69.9629 78.4214 69.755 77.9183 69.7199 77.466C69.8562 77.3621 69.9944 77.2599 70.1343 77.1605C69.9566 77.5511 70.1798 77.9579 70.4966 78.5321C70.5263 78.2234 70.2558 77.6344 70.1928 77.1191C70.2414 77.0845 70.2896 77.0493 70.3386 77.0151C70.4313 76.9508 70.5254 76.8878 70.619 76.8248C70.4363 77.2446 70.6766 77.6839 71.0172 78.3008C71.0492 77.9683 70.7594 77.3342 70.6887 76.7775C70.8507 76.6695 71.0141 76.5638 71.1783 76.4603C71.0141 76.8878 71.2395 77.3666 71.5509 78.0236C71.6049 77.6721 71.3466 76.9895 71.2944 76.3883C71.4267 76.306 71.5599 76.225 71.694 76.1449C71.5131 76.6102 71.7579 77.1299 72.0968 77.8454C72.1553 77.4638 71.8749 76.7236 71.8182 76.0711C71.8538 76.0504 71.8884 76.0287 71.924 76.0085C72.1071 75.9023 72.2921 75.7992 72.4775 75.698C72.2687 76.1678 72.4856 76.7735 72.7844 77.5975C72.8829 77.1925 72.6453 76.3338 72.6404 75.6098C72.8487 75.4986 73.0589 75.3911 73.2708 75.288C72.9671 75.811 73.2119 76.4927 73.5561 77.4426C73.6659 76.9917 73.3923 76.0238 73.4 75.2264C73.4616 75.1972 73.5233 75.1666 73.5854 75.1378C73.7798 75.0478 73.976 74.9623 74.1726 74.879C73.8203 75.4276 74.043 76.1817 74.3549 77.2284C74.5025 76.7465 74.2676 75.6809 74.3243 74.8155C74.5421 74.726 74.7621 74.6419 74.9835 74.5627C74.5592 75.1612 74.8035 75.9914 75.1509 77.156C75.312 76.6286 75.0524 75.4586 75.1194 74.5158C75.1869 74.4924 75.254 74.4681 75.3219 74.4461L75.3237 74.4457L75.3255 74.4448C75.3858 74.4236 75.4178 74.3574 75.3966 74.2967C75.3755 74.2364 75.3093 74.2045 75.249 74.2256C75.1752 74.2513 75.1028 74.2796 75.0299 74.3066C74.5092 74.0137 73.985 73.5542 73.5345 73.2122C73.4148 73.2086 73.2947 73.2068 73.1745 73.2041C73.7609 73.8985 74.2419 74.3683 74.8395 74.3768C74.6105 74.465 74.3841 74.56 74.16 74.659C73.3982 74.2274 72.6287 73.4125 72.1382 73.2631C72.8393 74.1163 73.3433 74.7256 74.0048 74.7278C73.836 74.8043 73.6677 74.8826 73.5017 74.964C73.4076 75.009 73.3145 75.0572 73.2209 75.1049Z" fill="#263238"/>
<path d="M67.5991 83.5178C67.1028 82.9787 66.7549 82.6025 66.2703 82.679C66.3454 82.5876 66.4206 82.4963 66.4944 82.4036C66.5371 82.3496 66.5785 82.2951 66.6208 82.2411C67.0924 82.4625 67.569 82.9107 67.8727 82.9805C67.4151 82.4832 67.0938 82.1363 66.6465 82.2074C66.7621 82.0589 66.8751 81.9081 66.9853 81.7551C67.4146 81.9261 67.8399 82.3001 68.1193 82.3491C67.7116 81.9306 67.4268 81.6413 67.0015 81.7331C67.0218 81.7047 67.0429 81.6773 67.0632 81.6489C67.1428 81.536 67.2216 81.4221 67.2976 81.3065C67.6887 81.4662 68.0752 81.8042 68.3299 81.8483C67.9596 81.4685 67.6999 81.2034 67.3174 81.2768C67.4079 81.1382 67.4938 80.9969 67.5703 80.8484C67.5798 80.8308 67.573 80.8083 67.555 80.7989C67.537 80.789 67.5145 80.7957 67.5046 80.8137L67.5042 80.8146C67.4308 80.9492 67.3489 81.0792 67.2625 81.2075C67.2864 80.8839 67.0506 80.6274 66.7266 80.2773C66.7567 80.5253 67.0546 80.9109 67.2004 81.2966C67.1307 81.3965 67.0591 81.4955 66.9871 81.594C66.97 81.617 66.952 81.6395 66.9349 81.6624C66.9907 81.2867 66.7279 81.0005 66.3589 80.6018C66.3922 80.8758 66.727 81.3056 66.8818 81.7317C66.7783 81.8685 66.6726 82.0035 66.5641 82.1367C66.6312 81.7128 66.3072 81.3803 65.8482 80.9118C65.9022 81.2169 66.3207 81.7124 66.5187 82.1925C66.4809 82.2389 66.444 82.2857 66.4057 82.3316C66.3337 82.4184 66.2599 82.5039 66.1866 82.5899C66.2505 82.1363 65.9013 81.7776 65.4081 81.2745C65.4661 81.6035 65.9152 82.1367 66.1317 82.6542C66.0043 82.8018 65.8756 82.9472 65.7447 83.0912C65.7883 82.6349 65.4436 82.2344 64.9675 81.6845C65.0094 82.0377 65.4409 82.6263 65.6524 83.1915C65.5471 83.3063 65.4405 83.4201 65.3325 83.5331C65.3824 83.0363 65.0076 82.6007 64.4896 82.0026C64.5355 82.386 65.0035 83.0246 65.2326 83.6379C65.2042 83.6672 65.1763 83.6973 65.1475 83.7266C64.9995 83.8782 64.8492 84.0267 64.6971 84.1743C64.7727 83.6654 64.4014 83.1402 63.8934 82.4261C63.9069 82.8428 64.365 83.6064 64.5639 84.3021C64.3929 84.465 64.2192 84.6248 64.0428 84.7809C64.1953 84.1959 63.7773 83.6042 63.1914 82.7811C63.2062 83.2451 63.7291 84.1046 63.9348 84.875C63.883 84.92 63.8322 84.9659 63.78 85.01C63.6171 85.149 63.451 85.2836 63.2832 85.4163C63.4758 84.794 63.0595 84.1266 62.4786 83.2014C62.4655 83.7054 62.9767 84.6693 63.1536 85.518C62.9673 85.6625 62.7783 85.8024 62.5861 85.9379C62.7274 85.5455 62.6361 85.1369 62.416 84.6702C62.47 85.2075 62.5114 85.7286 62.5479 86.2416C62.5686 86.2263 62.5893 86.2119 62.61 86.1966C63.5338 86.4248 64.5801 87.057 65.1381 87.0714C64.1638 86.3874 63.4627 85.8978 62.7747 86.0783C62.9718 85.932 63.1644 85.7799 63.3538 85.6247C64.2034 85.8366 65.1628 86.4158 65.6754 86.4293C64.7718 85.7948 64.1229 85.3421 63.4848 85.5176C63.627 85.3983 63.7678 85.2782 63.9064 85.1553C63.9852 85.0856 64.0621 85.014 64.1395 84.9429C64.9104 85.1796 65.7663 85.7682 66.2383 85.8078C65.4175 85.1576 64.8361 84.699 64.2201 84.8696C64.3996 84.7026 64.5751 84.5316 64.7484 84.3579C65.4567 84.5775 66.2419 85.1162 66.6753 85.1526C65.9206 84.5546 65.3851 84.1325 64.819 84.2873C64.9671 84.1374 65.1142 83.9862 65.2578 83.8323C65.2929 83.795 65.3266 83.7572 65.3617 83.7194C65.9926 83.9646 66.6523 84.5163 67.0533 84.5852C66.4147 83.9723 65.9701 83.5484 65.3869 83.6919C65.5251 83.5421 65.6614 83.3909 65.7955 83.2379C66.3756 83.4642 66.9822 83.9709 67.3507 84.0344C66.7644 83.471 66.3553 83.0813 65.8203 83.21C65.9625 83.0471 66.1029 82.8819 66.2406 82.7154C66.7522 82.9557 67.2693 83.4422 67.5991 83.5178Z" fill="#263238"/>
<path d="M75.4338 83.1901C75.1084 83.3332 74.6715 83.9182 74.1927 84.2854C74.0518 84.2179 73.9119 84.149 73.7728 84.0793C74.2624 83.9821 74.5693 83.4961 74.9905 82.8256C74.6372 82.9813 74.1634 83.6153 73.6437 84.014C73.6072 83.9951 73.5703 83.9776 73.5338 83.9587C73.3457 83.8615 73.1595 83.7611 72.9745 83.6585C73.483 83.582 73.8772 83.0735 74.4113 82.3792C74.0167 82.5137 73.4205 83.1752 72.8125 83.5685C72.6069 83.4524 72.4034 83.3332 72.2023 83.2099C72.8062 83.1851 73.2499 82.6118 73.866 81.8117C73.4268 81.9616 72.7571 82.7122 72.0808 83.1343C72.0227 83.0978 71.9643 83.0627 71.9067 83.0254C71.7262 82.9102 71.5489 82.7905 71.3729 82.669C72.0245 82.6717 72.5412 82.0786 73.2562 81.2528C72.7702 81.3874 71.998 82.1582 71.2375 82.5749C71.0449 82.439 70.8559 82.2991 70.6701 82.1546C71.4027 82.1911 71.9715 81.5386 72.7671 80.6201C72.2356 80.7677 71.3887 81.6155 70.5576 82.0651C70.5018 82.0205 70.4446 81.9773 70.3897 81.9319L70.3884 81.931L70.387 81.9296C70.3366 81.89 70.2637 81.8986 70.2241 81.949C70.1845 81.9989 70.1931 82.0718 70.2435 82.1119C70.3047 82.16 70.3676 82.2064 70.4293 82.2532C70.481 83.2036 70.1818 84.3884 70.3312 84.9266C70.7007 83.7949 70.9639 82.9813 70.5909 82.3756C70.7884 82.5214 70.99 82.6609 71.1939 82.7968C71.2393 83.6711 70.9657 84.7579 71.103 85.252C71.4459 84.2026 71.6888 83.4497 71.3351 82.8904C71.4904 82.9916 71.6466 83.0911 71.805 83.1878C71.8945 83.2427 71.9854 83.2954 72.0763 83.3489C72.0754 84.1553 71.7627 85.1458 71.8626 85.6088C72.2451 84.6341 72.5137 83.9434 72.1704 83.4047C72.3823 83.5276 72.5974 83.6455 72.8139 83.7607C72.8107 84.5023 72.525 85.4104 72.6168 85.8356C72.9682 84.9392 73.2153 84.3038 72.9021 83.8075C73.0888 83.9056 73.2765 84.0019 73.4655 84.0946C73.5114 84.1171 73.5577 84.1387 73.6036 84.1607C73.5532 84.8353 73.2184 85.6277 73.2697 86.0314C73.6693 85.2416 73.9447 84.6926 73.6369 84.1765C73.8205 84.2647 74.005 84.3511 74.1909 84.4348C74.1436 85.0558 73.8363 85.7839 73.8835 86.1547C74.2507 85.4293 74.5041 84.9244 74.2246 84.4501C74.4222 84.5387 74.6206 84.6247 74.8204 84.7075C74.7399 85.2673 74.4262 85.904 74.4496 86.2415C74.8204 85.6093 75.0783 85.1665 74.8636 84.7255C74.973 84.7705 75.0828 84.8155 75.1926 84.8591C75.2565 84.8843 75.3208 84.9077 75.3851 84.9325C75.3109 85.4482 75.0216 86.035 75.0436 86.3459C75.3856 85.7627 75.6237 85.3541 75.4243 84.9473C75.6003 85.0144 75.7776 85.0787 75.9558 85.1395C75.9175 85.5998 75.684 86.1164 75.7191 86.3977C75.9999 85.8851 76.1938 85.5287 75.9814 85.1485C76.0143 85.1597 76.0467 85.1719 76.08 85.1827C76.2114 85.2259 76.3432 85.2677 76.476 85.3069C76.4373 85.7276 76.2271 86.1961 76.259 86.4526C76.5142 85.9873 76.6915 85.6615 76.5101 85.3172C76.669 85.3631 76.8292 85.4041 76.9935 85.4342C77.0133 85.4378 77.0326 85.4252 77.0366 85.4054C77.0407 85.3852 77.0277 85.3658 77.0079 85.3613L77.007 85.3609C76.8571 85.3303 76.7081 85.2898 76.5605 85.2443C76.8769 85.1723 77.0533 84.8722 77.2936 84.4595C77.065 84.5608 76.7838 84.9586 76.4571 85.2106C76.341 85.1732 76.2253 85.1336 76.1105 85.0931C76.0835 85.0837 76.0566 85.0729 76.0296 85.0634C76.4053 85.0072 76.6024 84.6719 76.8756 84.2026C76.6227 84.3146 76.3104 84.7601 75.9472 85.0328C75.7861 84.9739 75.6259 84.9118 75.4671 84.8474C75.8919 84.7876 76.1155 84.3808 76.4292 83.8052C76.1529 83.9461 75.8014 84.4906 75.4005 84.8204C75.3451 84.7979 75.2898 84.7759 75.2344 84.7534C75.1305 84.7097 75.0269 84.6647 74.9234 84.6193C75.3757 84.5477 75.6169 84.109 75.954 83.4907C75.6561 83.6423 75.2776 84.2273 74.8456 84.586C74.6674 84.5077 74.4906 84.4267 74.3146 84.3434C74.7646 84.253 75.0472 83.8057 75.4338 83.1901Z" fill="#263238"/>
<path d="M72.8349 89.1906C73.2354 89.3256 73.6422 89.6379 73.8992 89.6663C73.5059 89.3108 73.2296 89.0628 72.8525 89.16C72.9339 89.016 73.0104 88.8693 73.0779 88.7168C73.086 88.6983 73.0779 88.6767 73.0595 88.6682C73.041 88.6596 73.019 88.6677 73.01 88.6862L73.0095 88.6875C72.9452 88.8261 72.8714 88.9616 72.7931 89.0948C72.7962 88.7703 72.5451 88.5296 72.1991 88.2002C72.245 88.4459 72.5667 88.8117 72.7364 89.1875C72.6729 89.2914 72.6081 89.3949 72.5424 89.4975C72.5267 89.5218 72.51 89.5452 72.4943 89.5691C72.5262 89.1906 72.2459 88.9215 71.8526 88.5471C71.903 88.8189 72.2643 89.2262 72.4457 89.642C72.3507 89.7846 72.254 89.9264 72.1545 90.0663C72.1946 89.6393 71.8503 89.3279 71.3625 88.8896C71.4354 89.1906 71.8845 89.6586 72.1127 90.1253C72.078 90.1739 72.0438 90.2229 72.0087 90.2711C71.9421 90.3624 71.8742 90.4524 71.8062 90.5429C71.8409 90.0861 71.4701 89.75 70.9463 89.2793C71.025 89.6042 71.507 90.1077 71.7558 90.6104C71.6384 90.7656 71.5187 90.9191 71.3972 91.0707C71.412 90.6126 71.0426 90.2346 70.5327 89.7158C70.5971 90.0654 71.0651 90.6257 71.3112 91.1765C71.2131 91.298 71.1141 91.4181 71.0138 91.5374C71.0322 91.0388 70.6304 90.6275 70.0755 90.0632C70.1453 90.443 70.6529 91.0505 70.9202 91.6481C70.8936 91.6791 70.8675 91.7111 70.841 91.7421C70.7028 91.9023 70.562 92.0607 70.4198 92.2169C70.463 91.7043 70.0593 91.2039 69.5072 90.5231C69.5468 90.938 70.0526 91.671 70.2951 92.3532C70.1349 92.5269 69.9716 92.697 69.8051 92.8644C69.9203 92.2709 69.4653 91.707 68.829 90.9227C68.8731 91.3848 69.4491 92.2097 69.7034 92.9652C69.6548 93.0134 69.6066 93.062 69.5576 93.1097C69.4037 93.2586 69.2462 93.4035 69.0873 93.5471C69.2403 92.9135 68.7827 92.274 68.1446 91.3871C68.1635 91.8911 68.7345 92.8208 68.9645 93.6569C68.7881 93.8126 68.6081 93.9647 68.4245 94.1118C68.6288 93.4076 68.1261 92.7033 67.416 91.7169C67.4367 92.2682 68.0658 93.2879 68.3115 94.2009C68.2553 94.245 68.1999 94.29 68.1432 94.3332L68.1419 94.3341L68.1405 94.3355C68.0901 94.3751 68.082 94.4484 68.1216 94.4984C68.1612 94.5483 68.2341 94.5569 68.2845 94.5173C68.3457 94.4687 68.4051 94.4183 68.4654 94.3688C69.4019 94.538 70.4859 95.1032 71.0439 95.082C70.0283 94.461 69.2975 94.0169 68.622 94.2401C68.8097 94.0812 68.9919 93.9174 69.1715 93.7505C70.0328 93.908 71.0268 94.4255 71.5394 94.4066C70.5975 93.8301 69.9212 93.4197 69.2957 93.6348C69.4302 93.507 69.563 93.3783 69.6935 93.2465C69.7677 93.1722 69.8402 93.0957 69.9131 93.0201C70.6974 93.2078 71.5889 93.7406 72.0623 93.7505C71.2023 93.1533 70.5926 92.7321 69.9891 92.9418C70.1579 92.7641 70.3221 92.5818 70.4841 92.3978C71.205 92.5724 72.0227 93.0602 72.4574 93.0692C71.6663 92.5197 71.1051 92.1327 70.5503 92.3226C70.6889 92.1638 70.8257 92.0031 70.9598 91.8411C70.9922 91.8015 71.0241 91.7615 71.0561 91.7219C71.7009 91.9266 72.3944 92.4356 72.7989 92.4792C72.123 91.9077 71.6523 91.5131 71.079 91.6931C71.2073 91.5347 71.3337 91.3754 71.4579 91.2138C72.0515 91.4033 72.6882 91.8704 73.0604 91.9104C72.4394 91.3853 72.0069 91.0226 71.4809 91.1846C71.6127 91.0131 71.7423 90.8394 71.8692 90.6644C72.3948 90.8718 72.942 91.3245 73.2759 91.3794C72.7467 90.8727 72.3755 90.5195 71.8967 90.6261C71.966 90.5303 72.0353 90.434 72.1028 90.3368C72.1419 90.2801 72.1797 90.2229 72.2189 90.1667C72.7035 90.3579 73.2075 90.7751 73.5153 90.8255C73.0271 90.3579 72.6846 90.0321 72.2427 90.1316C72.3489 89.9759 72.452 89.8184 72.5523 89.6591C72.9915 89.8026 73.4397 90.1491 73.7214 90.1797C73.2881 89.7878 72.9857 89.5169 72.5667 89.6361C72.5852 89.6064 72.6045 89.5781 72.623 89.5484C72.695 89.4291 72.7661 89.3108 72.8349 89.1906Z" fill="#263238"/>
<path d="M75.5652 94.2126C75.6574 94.0907 75.7578 93.9737 75.8622 93.8598C75.7911 94.1762 75.9864 94.4646 76.2555 94.8588C76.2622 94.6091 76.0242 94.1838 75.9369 93.7811C76.0206 93.6924 76.1061 93.6047 76.1916 93.5187C76.2118 93.4985 76.233 93.4791 76.2532 93.4589C76.1425 93.822 76.3603 94.1442 76.6668 94.5929C76.6744 94.3166 76.4062 93.8427 76.3162 93.3981C76.4391 93.278 76.5633 93.1601 76.6902 93.044C76.5615 93.4535 76.8333 93.8301 77.218 94.3607C77.2095 94.0511 76.8688 93.4994 76.7433 92.9954C76.7874 92.9553 76.831 92.9144 76.8756 92.8743C76.9597 92.7992 77.0452 92.7249 77.1303 92.6507C77.0007 93.0899 77.2932 93.4962 77.7067 94.0664C77.6977 93.732 77.3319 93.1389 77.1937 92.5953C77.3413 92.4684 77.4903 92.3433 77.6406 92.22C77.5303 92.6646 77.8125 93.1119 78.2022 93.7257C78.2125 93.3702 77.8723 92.7245 77.7468 92.1345C77.8683 92.0364 77.9902 91.9392 78.1135 91.8438C77.9907 92.3276 78.298 92.8136 78.7219 93.4818C78.7332 93.0962 78.3642 92.3955 78.2278 91.7552C78.2602 91.73 78.2922 91.7048 78.325 91.68C78.4938 91.5522 78.6643 91.4271 78.8362 91.3038C78.6864 91.7961 78.9762 92.3699 79.374 93.1511C79.4221 92.7371 79.081 91.914 78.987 91.1963C79.18 91.0604 79.3753 90.9281 79.5733 90.7994C79.3362 91.3551 79.6629 92.0022 80.121 92.9027C80.1745 92.4419 79.7839 91.5144 79.6939 90.722C79.7515 90.6851 79.8087 90.6473 79.8667 90.6113C80.0485 90.4979 80.2326 90.389 80.418 90.2823C80.1354 90.8696 80.449 91.5909 80.8878 92.5917C80.9746 92.0949 80.611 91.0667 80.5611 90.2009C80.7663 90.0852 80.9742 89.9745 81.1843 89.8692C80.8369 90.5154 81.1812 91.3092 81.6685 92.4225C81.7639 91.8794 81.3621 90.7499 81.3135 89.8062C81.3778 89.7752 81.4413 89.7423 81.5061 89.7122L81.5074 89.7113L81.5092 89.7104C81.5668 89.682 81.5902 89.6127 81.5619 89.5551C81.5335 89.498 81.4642 89.4741 81.4066 89.5025C81.3364 89.5371 81.268 89.574 81.1987 89.6096C80.3185 89.2478 79.3767 88.4684 78.8268 88.3721C79.6899 89.192 80.3113 89.7792 81.0183 89.7027C80.8018 89.8184 80.589 89.9403 80.3788 90.0663C79.5697 89.7315 78.7062 89.0174 78.2008 88.9292C79.0014 89.6901 79.5765 90.2328 80.2335 90.1536C80.0751 90.2499 79.918 90.3485 79.7632 90.4497C79.675 90.5073 79.5882 90.5663 79.5013 90.6252C78.7737 90.2778 78.0136 89.5695 77.5528 89.4611C78.2688 90.2252 78.7768 90.7643 79.4109 90.6864C79.2088 90.825 79.0099 90.9686 78.8133 91.1148C78.1446 90.7935 77.448 90.1451 77.0245 90.0452C77.6829 90.7476 78.1504 91.244 78.7332 91.1742C78.5644 91.3007 78.397 91.4289 78.2319 91.5594C78.1918 91.5914 78.1527 91.6242 78.1126 91.6557C77.5249 91.3205 76.9534 90.6774 76.5669 90.5505C77.1082 91.2507 77.4858 91.7354 78.0838 91.6791C77.925 91.8069 77.7679 91.9365 77.6127 92.0684C77.0722 91.7588 76.5471 91.1688 76.1916 91.0518C76.6888 91.6953 77.0358 92.1408 77.5843 92.0927C77.4196 92.2331 77.2567 92.3753 77.0961 92.5197C76.6254 92.207 76.1853 91.6494 75.8707 91.5261C76.282 92.1327 76.5714 92.5562 77.0619 92.5517C76.9741 92.6313 76.8864 92.7105 76.7995 92.7915C76.7496 92.8383 76.7001 92.8865 76.6506 92.9337C76.2168 92.6453 75.8113 92.1318 75.5211 92.0175C75.9004 92.5769 76.1673 92.9675 76.62 92.9625C76.4836 93.0926 76.3495 93.2249 76.2181 93.3599C75.819 93.1277 75.4531 92.6952 75.184 92.6057C75.526 93.0795 75.7645 93.4076 76.1992 93.3792C76.1749 93.4044 76.1497 93.4283 76.1259 93.4535C76.0305 93.5534 75.936 93.6546 75.8437 93.7577C75.4806 93.5417 75.148 93.1511 74.9023 93.0696C75.2124 93.4998 75.4306 93.8 75.8194 93.7838C75.7096 93.9075 75.6039 94.0349 75.5062 94.1699C75.4945 94.1865 75.4977 94.209 75.5139 94.2212C75.5301 94.2338 75.5535 94.2302 75.5661 94.214L75.5652 94.2126Z" fill="#263238"/>
<path d="M70.2897 100.623C70.4692 100.457 70.6447 100.286 70.818 100.112C71.5263 100.331 72.3111 100.871 72.7449 100.907C71.9902 100.308 71.4547 99.8864 70.8886 100.041C71.0367 99.8913 71.1838 99.7401 71.3278 99.5862C71.3629 99.5489 71.3967 99.5106 71.4318 99.4733C72.0627 99.7185 72.7224 100.27 73.1233 100.339C72.4848 99.7262 72.0402 99.3023 71.457 99.4463C71.5951 99.2964 71.7315 99.1448 71.8656 98.9918C72.4461 99.2186 73.0522 99.7248 73.4208 99.7883C72.8344 99.2253 72.4254 98.8352 71.8903 98.9639C72.0325 98.801 72.1729 98.6363 72.3106 98.4693C72.8223 98.7096 73.3398 99.1961 73.6692 99.2721C73.1728 98.733 72.8245 98.3568 72.3403 98.4333C72.4155 98.3415 72.4906 98.2502 72.5644 98.1575C72.6072 98.1035 72.6486 98.049 72.6909 97.995C73.1625 98.2164 73.639 98.6646 73.9428 98.7344C73.4851 98.2371 73.1638 97.8902 72.7165 97.9617C72.8322 97.8132 72.9451 97.6625 73.0554 97.5095C73.4847 97.6805 73.9099 98.0544 74.1894 98.103C73.7817 97.6845 73.4968 97.3952 73.0716 97.487C73.0918 97.4586 73.113 97.4312 73.1332 97.4028C73.2129 97.2899 73.2916 97.176 73.3677 97.0604C73.7587 97.2201 74.1453 97.5581 74.4 97.6026C74.0296 97.2228 73.77 96.9578 73.3875 97.0312C73.4779 96.8926 73.5634 96.7508 73.6404 96.6027C73.6498 96.5847 73.6431 96.5627 73.6251 96.5528C73.6071 96.5433 73.5846 96.5496 73.5747 96.5676L73.5742 96.5685C73.5009 96.7031 73.419 96.8336 73.3326 96.9614C73.3564 96.6378 73.1206 96.3813 72.7966 96.0312C72.8268 96.2792 73.1247 96.6648 73.2705 97.0505C73.2007 97.1504 73.1292 97.2494 73.0572 97.3479C73.0401 97.3709 73.0221 97.3934 73.005 97.4163C73.0608 97.0406 72.798 96.7539 72.429 96.3557C72.4623 96.6302 72.7971 97.0595 72.9519 97.4856C72.8484 97.6224 72.7426 97.7574 72.6342 97.8906C72.7012 97.4672 72.3772 97.1342 71.9182 96.6662C71.9722 96.9713 72.3907 97.4667 72.5887 97.9464C72.5509 97.9928 72.514 98.0396 72.4758 98.0855C72.4038 98.1723 72.33 98.2583 72.2566 98.3438C72.3205 97.8906 71.9713 97.5315 71.4781 97.0284C71.5362 97.3574 71.9853 97.8902 72.2022 98.4081C72.0748 98.5553 71.9461 98.7006 71.8152 98.8451C71.8593 98.3888 71.5141 97.9883 71.038 97.4384C71.0803 97.7916 71.5119 98.3802 71.7229 98.9454C71.6176 99.0602 71.511 99.174 71.403 99.287C71.4529 98.7902 71.0781 98.3546 70.5601 97.7565C70.606 98.1395 71.074 98.778 71.3031 99.3918C71.2747 99.4211 71.2468 99.4512 71.218 99.4805C71.07 99.6321 70.9197 99.7806 70.7676 99.9278C70.8432 99.4188 70.4719 98.8937 69.9639 98.1795C69.9774 98.5962 70.4359 99.3599 70.6344 100.056C70.4634 100.219 70.2897 100.379 70.1128 100.535C70.2654 99.9498 69.8473 99.3581 69.2614 98.5355C69.2763 98.9994 69.7987 99.8589 70.0048 100.629C69.9531 100.674 69.9022 100.72 69.85 100.764C69.6871 100.903 69.5206 101.038 69.3532 101.171C69.5463 100.548 69.1296 99.881 68.5491 98.9558C68.536 99.4539 69.0337 100.4 69.216 101.242C69.3316 101.25 69.4473 101.258 69.5625 101.266C69.702 101.149 69.8406 101.031 69.9769 100.91C70.0557 100.84 70.1326 100.768 70.21 100.697C70.7397 100.86 71.3071 101.186 71.7652 101.388C71.8795 101.393 71.9929 101.398 72.1068 101.403C71.3899 100.84 70.8531 100.467 70.2897 100.623Z" fill="#263238"/>
<path d="M67.801 99.2383C67.7898 99.6739 68.1376 100.426 68.377 101.18C68.4904 101.189 68.6047 101.198 68.7177 101.206C68.6808 100.649 68.2987 100.031 67.801 99.2383Z" fill="#263238"/>
<path d="M69.5859 101.267C69.8132 101.281 70.0395 101.296 70.265 101.309C70.0305 101.232 69.8073 101.213 69.5859 101.267Z" fill="#263238"/>
<path d="M82.6817 100.324C82.6948 100.298 82.7074 100.269 82.72 100.241C82.6646 100.222 82.6093 100.204 82.5544 100.185C82.5274 100.175 82.5004 100.165 82.4734 100.155C82.6075 100.135 82.7177 100.078 82.8181 99.9941C82.859 99.8767 82.8977 99.7511 82.9333 99.613C82.7681 99.7813 82.5877 99.9779 82.3915 100.125C82.2304 100.066 82.0702 100.004 81.9113 99.9397C82.3361 99.8798 82.5598 99.473 82.8734 98.8975C82.5971 99.0383 82.2457 99.5828 81.8447 99.9131C81.7894 99.8906 81.734 99.8686 81.6787 99.8456C81.5747 99.802 81.4712 99.757 81.3677 99.7115C81.82 99.64 82.0612 99.2012 82.3982 98.5829C82.1003 98.7346 81.7219 99.32 81.2899 99.6782C81.1117 99.5999 80.9348 99.5189 80.7589 99.4357C81.208 99.3443 81.4901 98.897 81.8771 98.2814C81.5518 98.425 81.1148 99.0095 80.636 99.3767C80.4952 99.3092 80.3552 99.2408 80.2162 99.1706C80.7058 99.0734 81.0127 98.5874 81.4339 97.9169C81.0806 98.0726 80.6068 98.7067 80.087 99.1054C80.0506 99.0865 80.0137 99.0689 79.9772 99.05C79.7891 98.9528 79.6028 98.8525 79.4179 98.7499C79.9264 98.6734 80.3206 98.1653 80.8547 97.4705C80.4601 97.6051 79.8638 98.267 79.2563 98.6603C79.0507 98.5447 78.8468 98.425 78.6461 98.3017C79.25 98.2765 79.6937 97.7036 80.3098 96.9031C79.8706 97.0529 79.201 97.8035 78.5246 98.2256C78.4666 98.1892 78.4076 98.1541 78.3505 98.1172C78.17 98.002 77.9927 97.8823 77.8168 97.7608C78.4684 97.7635 78.985 97.1704 79.7 96.3446C79.214 96.4796 78.4418 97.25 77.6813 97.6667C77.4887 97.5308 77.2997 97.3913 77.1139 97.2464C77.8465 97.2829 78.4153 96.6304 79.2109 95.7119C78.6794 95.8595 77.8325 96.7073 77.0009 97.1573C76.9451 97.1128 76.8884 97.0696 76.8331 97.0241L76.8317 97.0228L76.8304 97.0219C76.78 96.9823 76.7071 96.9908 76.6675 97.0412C76.6279 97.0916 76.6364 97.1641 76.6868 97.2041C76.748 97.2523 76.811 97.2982 76.8727 97.3454C76.9244 98.2958 76.6252 99.4811 76.7746 100.019C77.1445 98.8871 77.4077 98.0735 77.0342 97.4683C77.2318 97.6141 77.4334 97.7536 77.6372 97.8895C77.6827 98.7638 77.4091 99.8506 77.5463 100.345C77.8892 99.2948 78.1322 98.5424 77.7785 97.9831C77.9338 98.0843 78.0904 98.1838 78.2483 98.2805C78.3379 98.3354 78.4288 98.3881 78.5197 98.4416C78.5188 99.248 78.2056 100.238 78.3059 100.702C78.6884 99.7268 78.9571 99.0361 78.6137 98.4974C78.8257 98.6203 79.0408 98.7386 79.2572 98.8529C79.2541 99.5945 78.9683 100.503 79.0601 100.928C79.4116 100.031 79.6586 99.3961 79.3454 98.8997C79.5322 98.9978 79.7198 99.0941 79.9088 99.1868C79.9547 99.2093 80.0011 99.2309 80.047 99.2534C79.9966 99.9284 79.6618 100.72 79.7131 101.124C80.1127 100.334 80.3881 99.7853 80.0803 99.2692C80.2639 99.3574 80.4484 99.4438 80.6342 99.5275C80.5883 100.13 80.3008 100.829 80.3264 101.21C80.3336 101.209 80.3404 101.208 80.3476 101.207C80.7031 100.504 80.942 100.008 80.6684 99.5432C80.866 99.6319 81.0644 99.7178 81.2642 99.8006C81.199 100.255 80.9825 100.758 80.915 101.112C80.9551 101.105 80.9969 101.098 81.0361 101.089C81.325 100.584 81.4937 100.2 81.3079 99.8182C81.4172 99.8632 81.5266 99.9086 81.6368 99.9518C81.7007 99.977 81.7651 100 81.8294 100.025C81.7844 100.337 81.6616 100.675 81.5756 100.963C81.6472 100.943 81.7178 100.923 81.784 100.903C81.9388 100.581 82.0009 100.31 81.869 100.04C82.045 100.108 82.2223 100.172 82.4005 100.233C82.3879 100.383 82.3532 100.539 82.315 100.691C82.3883 100.653 82.454 100.614 82.513 100.573C82.5121 100.462 82.4882 100.352 82.4261 100.241C82.459 100.252 82.4914 100.265 82.5247 100.275C82.576 100.292 82.6291 100.307 82.6817 100.324Z" fill="#263238"/>
<path d="M65.3674 90.932L65.3692 90.9315L65.371 90.9311C65.4326 90.914 65.4686 90.8501 65.4515 90.7884C65.4344 90.7268 65.3705 90.6908 65.3089 90.7079C65.2337 90.7286 65.1595 90.7524 65.0848 90.7745C64.2874 90.2552 63.508 89.3133 62.9855 89.1162C63.6803 90.0828 64.1812 90.7758 64.8904 90.8321C64.6559 90.9054 64.4242 90.9855 64.1942 91.0701C63.6529 90.7155 63.1219 90.153 62.6872 89.8101C62.6876 89.915 62.6858 90.0135 62.6858 90.1175C63.1336 90.7043 63.5264 91.0944 64.0349 91.1286C63.8617 91.1943 63.6889 91.2614 63.5174 91.332C63.4202 91.3721 63.3239 91.4139 63.2272 91.4558C63.0409 91.319 62.8586 91.1525 62.6818 90.9801C62.68 91.1061 62.6782 91.2312 62.6759 91.355C62.815 91.4373 62.963 91.4877 63.1268 91.4985C62.9716 91.5665 62.819 91.6398 62.6656 91.7123C62.6638 91.7762 62.662 91.8387 62.6602 91.9022C62.8604 91.8117 63.062 91.724 63.2654 91.6407C62.9288 92.1429 63.1291 92.8395 63.4112 93.8093C63.5498 93.3665 63.3392 92.3823 63.3986 91.5876C63.4621 91.562 63.5255 91.5354 63.5894 91.5111C63.7892 91.4337 63.9904 91.3613 64.1924 91.2906C63.8054 91.8149 63.9791 92.5821 64.223 93.6473C64.4012 93.1757 64.2356 92.097 64.3481 91.2375C64.5713 91.1624 64.7959 91.0922 65.0222 91.0283C64.5601 91.598 64.7504 92.4422 65.0218 93.6266C65.2166 93.1109 65.0326 91.9265 65.1608 90.99C65.2297 90.9698 65.2981 90.9495 65.3674 90.932Z" fill="#263238"/>
<path d="M62.584 93.7529C62.5993 93.806 62.6141 93.8574 62.6299 93.9127C62.7091 93.6594 62.6645 93.2139 62.6321 92.7373C62.6182 93.0843 62.602 93.4235 62.584 93.7529Z" fill="#263238"/>
<path d="M64.1796 100.336C64.1247 100.246 64.0675 100.158 64.0108 100.07C64.3767 99.351 65.1039 98.6094 65.2245 98.1513C64.4424 98.8474 63.8902 99.3415 63.9523 99.9774C63.8187 99.7717 63.6805 99.5693 63.5397 99.369C63.8781 98.7089 64.5441 98.0284 64.6548 97.6081C63.9357 98.2485 63.4276 98.703 63.4821 99.2871C63.3601 99.1152 63.2364 98.9447 63.1095 98.7764C63.0789 98.7354 63.0469 98.6953 63.0163 98.6544C63.3664 98.0752 64.0239 97.5204 64.1607 97.1375C63.447 97.6608 62.9529 98.0258 62.9938 98.6252C62.8701 98.4636 62.7445 98.3029 62.6167 98.1445C62.9398 97.6117 63.5433 97.1023 63.6693 96.75C63.0132 97.2306 62.5591 97.5663 62.5933 98.1158C62.5024 98.0028 62.4088 97.8921 62.3157 97.7814C62.3116 97.8435 62.3076 97.9079 62.304 97.9686C62.3571 98.0357 62.4115 98.1018 62.4637 98.1693C62.407 98.1536 62.3503 98.145 62.2927 98.1419C62.2891 98.2089 62.2864 98.2733 62.2828 98.339C62.3715 98.3156 62.4597 98.294 62.5465 98.2778C62.6415 98.4015 62.7351 98.5261 62.8278 98.6517C62.6464 98.6008 62.4637 98.6112 62.2693 98.6652C62.2653 98.7583 62.2603 98.8547 62.2576 98.9451C62.4741 98.8754 62.6968 98.8088 62.9133 98.7683C62.9371 98.8011 62.9619 98.834 62.9862 98.8673C63.1099 99.0392 63.2305 99.2133 63.3493 99.3879C63.0334 99.283 62.677 99.3627 62.2513 99.5332C62.2513 99.616 62.2491 99.7038 62.2504 99.7839C62.6266 99.698 63.0555 99.5832 63.4528 99.5414C63.5838 99.7376 63.7111 99.9365 63.8349 100.137C63.4056 99.941 62.9106 100.089 62.281 100.369C62.2855 100.427 62.286 100.493 62.2918 100.549C62.326 100.554 62.3602 100.558 62.3944 100.562C62.853 100.465 63.4087 100.304 63.9091 100.26C63.9447 100.318 63.9807 100.376 64.0153 100.435C64.0828 100.55 64.1467 100.667 64.2115 100.783C64.2957 100.793 64.3794 100.802 64.4635 100.812C64.3708 100.652 64.2768 100.493 64.1796 100.336Z" fill="#263238"/>
<path d="M62.4196 96.2513C62.4142 96.3242 62.4097 96.3899 62.4043 96.4619C62.5483 96.3116 62.6689 96.1739 62.7193 96.0547C62.6122 96.124 62.5132 96.1883 62.4196 96.2513Z" fill="#263238"/>
<path d="M65.0664 100.878C65.1996 100.892 65.3328 100.907 65.4665 100.92C65.826 100.349 66.2067 99.8176 66.2801 99.4531C65.7374 99.9954 65.2973 100.44 65.0664 100.878Z" fill="#263238"/>
<path d="M64.6121 100.829C64.9843 100.069 65.6435 99.2887 65.7394 98.8135C64.9591 99.5938 64.402 100.154 64.4636 100.813C64.5131 100.818 64.5626 100.824 64.6121 100.829Z" fill="#263238"/>
<path d="M62.3622 97.0569C62.3536 97.177 62.346 97.2963 62.3379 97.4128C62.6632 97.0299 63.0907 96.682 63.2023 96.417C62.8419 96.6478 62.5485 96.84 62.3622 97.0569Z" fill="#263238"/>
</g>
<path d="M93.6203 86.0559L95.6097 83.9463L98.3646 87.8257C98.3646 87.8257 96.039 89.4763 93.8106 89.4102L93.555 88.8405C93.1397 87.9139 93.1635 86.8897 93.6203 86.0559Z" fill="#FFB573"/>
<path d="M98.7976 84.1484L99.5757 85.6145C99.9303 86.2828 99.6801 87.1121 99.0145 87.4726L98.3643 87.8249L95.6094 83.9455L97.1848 83.4743C97.8144 83.2853 98.4894 83.5679 98.7976 84.1484Z" fill="#FFB573"/>
<path d="M83.1078 78.4806L83.2752 79.3419L83.4642 80.2514C83.5997 80.858 83.732 81.4668 83.885 82.068C84.1784 83.2744 84.5258 84.4561 84.9038 85.5991C85.2948 86.7336 85.7336 87.828 86.238 88.7977C86.7456 89.758 87.3306 90.5964 87.8873 91.0945L86.9306 90.6234C86.6502 90.5852 86.5998 90.6706 86.7452 90.6657C86.8829 90.6657 87.1448 90.5937 87.4274 90.4704C88.002 90.218 88.6851 89.8161 89.3439 89.3485C90.0153 88.8882 90.6876 88.3648 91.3617 87.8239C92.0327 87.2893 92.718 86.6989 93.3714 86.1639L93.4407 86.1068C94.1175 85.5528 95.1152 85.6518 95.6696 86.3286C96.0813 86.8312 96.1313 87.5121 95.8532 88.0557C95.3919 88.9539 94.8969 89.745 94.3448 90.5519C93.7931 91.3497 93.1901 92.1219 92.511 92.8757C91.8176 93.6173 91.0773 94.3589 90.086 95.0276C89.5842 95.3597 89.0235 95.6864 88.2891 95.9442C87.9215 96.0725 87.5039 96.1777 87.0215 96.2218C86.5418 96.2668 85.9896 96.2475 85.4181 96.1066C85.1036 96.0288 84.8178 95.8933 84.5699 95.7147L84.461 95.635C82.8963 94.5006 81.869 93.1479 81.0369 91.8137C80.6256 91.1432 80.2589 90.4677 79.9272 89.7909C79.6059 89.1114 79.3143 88.4301 79.0452 87.7479C78.5115 86.3849 78.0872 85.0105 77.7258 83.6326C77.5503 82.9419 77.382 82.2516 77.2439 81.5532C77.1732 81.2044 77.1048 80.8544 77.0441 80.5011C76.9833 80.1375 76.9316 79.8126 76.8735 79.391C76.6364 77.6679 77.841 76.0794 79.5641 75.8423C81.2259 75.6137 82.7631 76.7265 83.0826 78.3519L83.1078 78.4806Z" fill="#FFB573"/>
<path d="M78.7922 73.7556C81.408 74.0261 83.5028 75.7617 84.9653 81.2931C83.8403 82.8497 76.7528 86.2656 76.7528 86.2656C76.7528 86.2656 72.8067 73.1364 78.7922 73.7556Z" fill="#263238"/>
</svg>
