<svg width="65" height="32" viewBox="0 0 65 32" fill="none" xmlns="http://www.w3.org/2000/svg">
<path d="M40.8334 8.17737C40.5077 7.97456 40.1354 7.85845 39.7521 7.84007C39.3688 7.82169 38.9871 7.90166 38.6434 8.07237L38.4859 8.15487C38.3813 8.20762 38.2657 8.2351 38.1484 8.2351C38.0312 8.2351 37.9156 8.20762 37.8109 8.15487L36.1534 7.32237C35.8413 7.16656 35.4973 7.08545 35.1484 7.08545C34.7996 7.08545 34.4555 7.16656 34.1434 7.32237L32.4859 8.15487C32.3813 8.20762 32.2657 8.2351 32.1484 8.2351C32.0312 8.2351 31.9156 8.20762 31.8109 8.15487L31.6534 8.07237C31.3097 7.90166 30.9281 7.82169 30.5448 7.84007C30.1615 7.85845 29.7892 7.97456 29.4634 8.17737C29.1378 8.37913 28.8691 8.66069 28.6827 8.99538C28.4963 9.33006 28.3985 9.70679 28.3984 10.0899V14.4099H26.1484C25.5517 14.4099 24.9794 14.6469 24.5574 15.0689C24.1355 15.4908 23.8984 16.0631 23.8984 16.6599V21.9099C23.8984 22.7055 24.2145 23.4686 24.7771 24.0312C25.3397 24.5938 26.1028 24.9099 26.8984 24.9099H38.8984C39.6941 24.9099 40.4571 24.5938 41.0198 24.0312C41.5824 23.4686 41.8984 22.7055 41.8984 21.9099V10.0899C41.8984 9.70679 41.8006 9.33006 41.6142 8.99538C41.4278 8.66069 41.1591 8.37913 40.8334 8.17737ZM25.3984 21.9099V16.6599C25.3984 16.461 25.4775 16.2702 25.6181 16.1295C25.7588 15.9889 25.9495 15.9099 26.1484 15.9099H28.3984V21.7899C28.4037 22.1332 28.2997 22.4693 28.1016 22.7497C27.9034 23.0301 27.6213 23.2402 27.2959 23.3499H27.2509H27.0784H26.9359C26.7388 23.355 26.5427 23.3212 26.3586 23.2504C26.1746 23.1796 26.0063 23.0732 25.8634 22.9374C25.5807 22.6684 25.4139 22.2998 25.3984 21.9099ZM40.3984 21.9099C40.3984 22.3077 40.2404 22.6892 39.9591 22.9705C39.6778 23.2518 39.2963 23.4099 38.8984 23.4099H29.4934C29.7578 22.9541 29.8975 22.4368 29.8984 21.9099V10.0899C29.8982 9.96241 29.9304 9.83699 29.9921 9.72545C30.0538 9.61391 30.1429 9.51993 30.2509 9.45237C30.365 9.38655 30.4943 9.35189 30.6259 9.35189C30.7576 9.35189 30.8869 9.38655 31.0009 9.45237L31.1584 9.53487C31.4705 9.69069 31.8146 9.7718 32.1634 9.7718C32.5123 9.7718 32.8563 9.69069 33.1684 9.53487L34.8259 8.70237C34.9306 8.64962 35.0462 8.62214 35.1634 8.62214C35.2807 8.62214 35.3963 8.64962 35.5009 8.70237L37.1584 9.53487C37.4705 9.69069 37.8146 9.7718 38.1634 9.7718C38.5123 9.7718 38.8563 9.69069 39.1684 9.53487L39.3259 9.45237C39.44 9.38655 39.5693 9.35189 39.7009 9.35189C39.8326 9.35189 39.9619 9.38655 40.0759 9.45237C40.184 9.51993 40.2731 9.61391 40.3348 9.72545C40.3965 9.83699 40.4287 9.96241 40.4284 10.0899L40.3984 21.9099Z" fill="#616161"/>
<path d="M38.1484 13.8398H32.1484C31.9495 13.8398 31.7588 13.9189 31.6181 14.0595C31.4775 14.2002 31.3984 14.3909 31.3984 14.5898C31.3984 14.7888 31.4775 14.9795 31.6181 15.1202C31.7588 15.2608 31.9495 15.3398 32.1484 15.3398H38.1484C38.3473 15.3398 38.5381 15.2608 38.6788 15.1202C38.8194 14.9795 38.8984 14.7888 38.8984 14.5898C38.8984 14.3909 38.8194 14.2002 38.6788 14.0595C38.5381 13.9189 38.3473 13.8398 38.1484 13.8398ZM36.6484 18.3398H32.1484C31.9495 18.3398 31.7588 18.4189 31.6181 18.5595C31.4775 18.7002 31.3984 18.8909 31.3984 19.0898C31.3984 19.2888 31.4775 19.4795 31.6181 19.6202C31.7588 19.7608 31.9495 19.8398 32.1484 19.8398H36.6484C36.8473 19.8398 37.0381 19.7608 37.1788 19.6202C37.3194 19.4795 37.3984 19.2888 37.3984 19.0898C37.3984 18.8909 37.3194 18.7002 37.1788 18.5595C37.0381 18.4189 36.8473 18.3398 36.6484 18.3398Z" fill="#616161"/>
</svg>
