<svg width="97" height="99" viewBox="0 0 97 99" fill="none" xmlns="http://www.w3.org/2000/svg">
<g opacity="0.67">
<path d="M55.8471 2.5121C51.5217 -0.837364 45.4784 -0.837369 41.1529 2.5121L0.5 33.9923L96.5 33.9923L55.8471 2.5121Z" fill="#F2F2F7"/>
<path d="M48.5 71.1618L96.5 33.9923L0.5 33.9923L48.5 71.1618Z" fill="#F2F2F7"/>
</g>
<rect x="30.9492" y="46.8228" width="36" height="36" rx="2" fill="#0A0A0A"/>
<rect x="1" y="-1" width="20" height="22" rx="9" transform="matrix(1 0 0 -1 37.9492 55.8228)" stroke="#0A0A0A" stroke-width="2"/>
<circle cx="48.5" cy="57.8228" r="3" fill="white"/>
<path d="M0.718873 33.8228L0.5 33.9922V33.8228H0.718873Z" fill="#E5E7EB"/>
<path d="M96.2811 33.8228L96.5 33.9922L55.8471 65.4724C51.5217 68.8219 45.4784 68.8219 41.1529 65.4724L0.5 33.9922V86.8228C0.5 93.4502 5.87258 98.8228 12.5 98.8228H84.5C91.1274 98.8228 96.5 93.4502 96.5 86.8228V33.9922V33.8228H96.2811Z" fill="#E5E7EB"/>
</svg>
