<svg width="65" height="32" viewBox="0 0 65 32" fill="none" xmlns="http://www.w3.org/2000/svg">
<path d="M39.6789 14.4841V11.442C39.6789 10.8897 39.2312 10.442 38.6789 10.442H32.0089C31.7437 10.442 31.4894 10.3366 31.3018 10.1491L29.8666 8.71379C29.679 8.52626 29.4247 8.4209 29.1595 8.4209H23.5C22.9477 8.4209 22.5 8.86861 22.5 9.4209V22.5788C22.5 23.1311 22.9477 23.5788 23.5 23.5788H24.6762C25.1486 23.5788 25.5316 23.1958 25.5316 22.7234V22.7234C25.5316 22.6208 25.55 22.5191 25.586 22.423L28.3198 15.1329C28.4662 14.7426 28.8393 14.4841 29.2562 14.4841H40.3126C40.9951 14.4841 41.4771 15.1528 41.2613 15.8003L38.8963 22.895C38.7602 23.3034 38.3781 23.5788 37.9477 23.5788H24.5211" stroke="#616161" stroke-width="2" stroke-linecap="round" stroke-linejoin="round"/>
</svg>
