<svg width="65" height="32" viewBox="0 0 65 32" fill="none" xmlns="http://www.w3.org/2000/svg">
<path fill-rule="evenodd" clip-rule="evenodd" d="M33.9751 8.31627C33.5476 6.56124 31.05 6.56124 30.6225 8.31627C30.5587 8.57999 30.4335 8.82492 30.2571 9.03112C30.0808 9.23732 29.8582 9.39897 29.6076 9.50291C29.3569 9.60684 29.0853 9.65014 28.8147 9.62927C28.5442 9.60839 28.2824 9.52394 28.0507 9.38279C26.5071 8.44227 24.7408 10.2085 25.6814 11.7521C26.2889 12.7488 25.75 14.0494 24.616 14.325C22.8598 14.7514 22.8598 17.25 24.616 17.6753C24.8798 17.7392 25.1247 17.8645 25.3309 18.041C25.5371 18.2175 25.6987 18.4402 25.8026 18.691C25.9064 18.9418 25.9496 19.2135 25.9285 19.4841C25.9074 19.7547 25.8228 20.0165 25.6814 20.2482C24.7408 21.7917 26.5071 23.558 28.0507 22.6175C28.2824 22.4761 28.5442 22.3914 28.8148 22.3704C29.0854 22.3493 29.3572 22.3924 29.6079 22.4963C29.8587 22.6001 30.0814 22.7617 30.2579 22.9679C30.4344 23.1741 30.5597 23.4191 30.6237 23.6829C31.05 25.439 33.5487 25.439 33.974 23.6829C34.0381 23.4192 34.1636 23.1744 34.3401 22.9684C34.5166 22.7623 34.7393 22.6008 34.99 22.497C35.2407 22.3932 35.5124 22.35 35.7829 22.3709C36.0534 22.3919 36.3152 22.4764 36.547 22.6175C38.0905 23.558 39.8568 21.7917 38.9163 20.2482C38.7751 20.0165 38.6907 19.7547 38.6697 19.4842C38.6488 19.2136 38.692 18.942 38.7958 18.6913C38.8996 18.4406 39.0611 18.2179 39.2672 18.0414C39.4732 17.8648 39.718 17.7394 39.9817 17.6753C41.7379 17.2489 41.7379 14.7502 39.9817 14.325C39.7179 14.2611 39.4729 14.1358 39.2667 13.9593C39.0605 13.7828 38.8989 13.5601 38.7951 13.3093C38.6912 13.0585 38.6481 12.7868 38.6691 12.5162C38.6902 12.2456 38.7749 11.9838 38.9163 11.7521C39.8568 10.2085 38.0905 8.44227 36.547 9.38279C36.3153 9.52418 36.0535 9.60886 35.7829 9.62992C35.5122 9.65098 35.2405 9.60784 34.9897 9.504C34.7389 9.40016 34.5162 9.23856 34.3397 9.03236C34.1632 8.82616 34.0379 8.58119 33.974 8.3174L33.9751 8.31627Z" stroke="#616161" stroke-width="2"/>
<path d="M34.2988 16C34.2988 17.1046 33.4034 18 32.2988 18C31.1943 18 30.2988 17.1046 30.2988 16C30.2988 14.8954 31.1943 14 32.2988 14C33.4034 14 34.2988 14.8954 34.2988 16Z" stroke="#616161" stroke-width="2"/>
</svg>
