<svg width="24" height="24" viewBox="0 0 24 24" fill="none" xmlns="http://www.w3.org/2000/svg">
<path d="M5.31851 3.07452L5.31857 3.07456C5.64327 3.27235 6.01009 3.39068 6.38917 3.41993C6.76824 3.44917 7.14887 3.38851 7.50007 3.24287C7.85127 3.09723 8.16313 2.87073 8.41026 2.5818C8.65738 2.29287 8.8328 1.94967 8.92224 1.58014L8.43631 1.46253L8.92207 1.58086C9.26768 0.162042 11.2614 0.14006 11.6581 1.51491L11.6742 1.5815C11.7637 1.95113 11.9393 2.29439 12.1866 2.58331C12.434 2.87224 12.746 3.09868 13.0974 3.24418C13.4488 3.38968 13.8296 3.45014 14.2088 3.42062C14.5879 3.39111 14.9548 3.27246 15.2794 3.07434C16.5468 2.30247 17.9968 3.75265 17.2246 5.01991C17.0266 5.34448 16.908 5.71122 16.8785 6.09027C16.849 6.46945 16.9094 6.85024 17.0549 7.20162C17.2004 7.55301 17.4269 7.86507 17.7158 8.11238C18.0047 8.3597 18.348 8.53527 18.7176 8.62482L18.7177 8.62483C20.1585 8.97374 20.16 11.0253 18.7174 11.3756L18.7172 11.3756C18.3478 11.4654 18.0048 11.6412 17.7161 11.8885C17.4274 12.1358 17.2012 12.4478 17.0557 12.799C16.9103 13.1503 16.8498 13.5308 16.8791 13.9099C16.9084 14.2889 17.0268 14.6556 17.2245 14.9803L17.2246 14.9804C17.9968 16.2478 16.5466 17.6981 15.2791 16.9258L15.2791 16.9257C14.9544 16.728 14.5876 16.6096 14.2086 16.5803C13.8296 16.551 13.449 16.6115 13.0977 16.7569C12.7465 16.9024 12.4345 17.1286 12.1872 17.4173C11.9399 17.706 11.7641 18.049 11.6743 18.4184L11.6742 18.4189C11.3253 19.8597 9.27366 19.8612 8.9234 18.4186C8.83384 18.049 8.65828 17.7059 8.41101 17.417C8.1637 17.1281 7.85164 16.9016 7.50025 16.7561C7.14885 16.6106 6.76807 16.5502 6.38889 16.5797C6.00971 16.6092 5.64286 16.7278 5.31822 16.926C4.05094 17.6978 2.60111 16.2479 3.37289 14.9807C3.57102 14.6561 3.68967 14.2892 3.71919 13.91C3.7487 13.5309 3.68824 13.1501 3.54274 12.7987C3.39723 12.4473 3.17079 12.1352 2.88186 11.8879C2.59293 11.6406 2.24967 11.465 1.88004 11.3755L1.87998 11.3755C0.439116 11.0266 0.437671 8.97501 1.88028 8.62476L1.8804 8.62473C3.46926 8.23856 4.22438 6.41666 3.37305 5.01986C2.60086 3.75252 4.05108 2.30225 5.31851 3.07452ZM10.2988 14.2502C11.426 14.2502 12.5071 13.8024 13.3041 13.0054C14.1012 12.2084 14.5489 11.1273 14.5489 10.0002C14.5489 8.87297 14.1012 7.79195 13.3041 6.99491C12.5071 6.19787 11.426 5.7501 10.2988 5.7501C9.17163 5.7501 8.0906 6.19787 7.29354 6.99491C6.49649 7.79195 6.04871 8.87297 6.04871 10.0002C6.04871 11.1273 6.49649 12.2084 7.29354 13.0054C8.0906 13.8024 9.17163 14.2502 10.2988 14.2502Z" fill="#616161" stroke="#616161"/>
</svg>
